<svg class="iconigniter" width="24" height="24" viewBox="0 0 24 24" fill="currentcolor" xmlns="http://www.w3.org/2000/svg">
<path fill-rule="evenodd" clip-rule="evenodd" d="M17.9955 5.05495C17.9424 5.00666 17.8881 4.95837 17.8326 4.91018L18.7068 3.68404C18.8095 3.77082 18.9087 3.85794 19.0045 3.94504C19.7413 4.61489 20.2771 5.28438 20.6301 5.78865C20.8069 6.04124 20.9388 6.25376 21.028 6.4061C21.0727 6.48231 21.1067 6.54361 21.1304 6.58748C21.1422 6.60942 21.1515 6.62703 21.1582 6.63998L21.1664 6.65588L21.1691 6.66115L21.1701 6.6631L21.1705 6.6639C21.1707 6.66425 21.1708 6.66459 20.5 7C19.8292 7.33541 19.8293 7.3357 19.8295 7.33598L19.8271 7.33133C19.824 7.32536 19.8185 7.31488 19.8105 7.30021C19.7947 7.27084 19.7691 7.22471 19.7337 7.1642C19.6628 7.04311 19.5525 6.865 19.4012 6.64884C19.098 6.21562 18.6337 5.6351 17.9955 5.05495ZM4.99551 3.94504C5.09131 3.85795 5.19055 3.77083 5.29326 3.68405L6.16745 4.91019C6.11195 4.95838 6.05764 5.00666 6.00452 5.05495C5.36635 5.6351 4.90207 6.21562 4.59881 6.64884C4.4475 6.865 4.33724 7.04311 4.26631 7.1642C4.23088 7.22471 4.20534 7.27084 4.18948 7.30021C4.18155 7.31488 4.17606 7.32536 4.17295 7.33133L4.17054 7.33598C4.17068 7.3357 4.17083 7.33541 3.50001 7C2.82919 6.66459 2.82936 6.66425 2.82953 6.6639L2.82994 6.6631L2.83092 6.66115L2.83359 6.65588L2.84178 6.63998C2.8485 6.62703 2.85777 6.60942 2.86962 6.58748C2.89332 6.54361 2.92735 6.48231 2.97199 6.4061C3.06122 6.25376 3.19315 6.04124 3.36996 5.78865C3.72295 5.28438 4.25867 4.61489 4.99551 3.94504ZM12 18.5C15.5899 18.5 18.5 15.5899 18.5 12C18.5 8.41015 15.5899 5.5 12 5.5C8.41015 5.5 5.5 8.41015 5.5 12C5.5 15.5899 8.41015 18.5 12 18.5ZM12 20C16.4183 20 20 16.4183 20 12C20 7.58172 16.4183 4 12 4C7.58172 4 4 7.58172 4 12C4 16.4183 7.58172 20 12 20ZM11.25 11.25V7H12.75V12V12.75H12H7V11.25H11.25Z"/>
</svg>
