<svg class="iconigniter" width="24" height="24" viewBox="0 0 24 24" fill="currentColor"  xmlns="http://www.w3.org/2000/svg">
<path fill-rule="evenodd" clip-rule="evenodd" d="M5.83757 17.1018L1.46967 21.4697L2.53033 22.5303L22.5303 2.53033L21.4697 1.46967L17.1018 5.83758C15.717 4.68988 13.9391 4 12 4C7.58172 4 4 7.58173 4 12C4 13.9391 4.68987 15.717 5.83757 17.1018ZM6.90399 16.0354L10.1893 12.75H7V11.25H10.6893L10.9697 10.9697L11.25 10.6893V7H12.75V10.1893L16.0353 6.90399C14.9268 6.02496 13.5247 5.5 12 5.5C8.41014 5.5 5.5 8.41015 5.5 12C5.5 13.5247 6.02495 14.9268 6.90399 16.0354ZM5.29325 3.68405C5.19054 3.77083 5.0913 3.85796 4.9955 3.94505C4.25867 4.6149 3.72295 5.28438 3.36996 5.78866C3.19314 6.04125 3.06121 6.25377 2.97198 6.40611C2.92735 6.48232 2.89331 6.54361 2.86962 6.58749C2.85777 6.60943 2.8485 6.62703 2.84177 6.63998L2.83359 6.65589L2.83091 6.66115L2.82993 6.6631L2.82953 6.66391C2.82935 6.66426 2.82919 6.66459 3.50001 7C4.17083 7.33541 4.17068 7.33571 4.17054 7.33599L4.17295 7.33134C4.17605 7.32537 4.18155 7.31489 4.18948 7.30021C4.20533 7.27085 4.23087 7.22472 4.26631 7.16421C4.33724 7.04311 4.4475 6.86501 4.59881 6.64885C4.90206 6.21562 5.36634 5.63511 6.00451 5.05496C6.05763 5.00667 6.11194 4.95839 6.16745 4.9102L5.29325 3.68405ZM4.17002 7.33703C4.16989 7.33727 4.16992 7.33722 4.1701 7.33687L4.17002 7.33703ZM12 20C10.5771 20 9.24102 19.6285 8.08336 18.9773L9.19525 17.8654C10.0444 18.2722 10.9956 18.5 12 18.5C15.5898 18.5 18.5 15.5899 18.5 12C18.5 10.9956 18.2722 10.0444 17.8654 9.19526L18.9773 8.08337C19.6285 9.24103 20 10.5771 20 12C20 16.4183 16.4183 20 12 20Z" />
</svg>
