<svg class="iconigniter" width="24" height="24" viewBox="0 0 24 24" fill="currentColor"  xmlns="http://www.w3.org/2000/svg">
<path fill-rule="evenodd" clip-rule="evenodd" d="M9.5 8.5V11H8V8.5H6C5.72386 8.5 5.5 8.72386 5.5 9V19C5.5 19.2761 5.72386 19.5 6 19.5H18C18.2761 19.5 18.5 19.2761 18.5 19V9C18.5 8.72386 18.2761 8.5 18 8.5H16V11H14.5V8.5H9.5ZM9.5 7H14.5V5C14.5 4.72386 14.2761 4.5 14 4.5H10C9.72386 4.5 9.5 4.72386 9.5 5V7ZM16 7H18C19.1046 7 20 7.89543 20 9V19C20 20.1046 19.1046 21 18 21H6C4.89543 21 4 20.1046 4 19V9C4 7.89543 4.89543 7 6 7H8V5C8 3.89543 8.89543 3 10 3H14C15.1046 3 16 3.89543 16 5V7Z" />
</svg>
