<svg class="iconigniter" width="24" height="24" viewBox="0 0 24 24" fill="currentColor"  xmlns="http://www.w3.org/2000/svg">
<path fill-rule="evenodd" clip-rule="evenodd" d="M5.93933 17L1.46967 21.4697L2.53033 22.5303L22.5303 2.53033L21.4697 1.46967L15.9393 7H4C2.89543 7 2 7.89543 2 9V15C2 16.1046 2.89543 17 4 17H5.93933ZM7.43933 15.5H4C3.72385 15.5 3.5 15.2761 3.5 15V9C3.5 8.72386 3.72385 8.5 4 8.5H14.4393L7.43933 15.5ZM10.0607 17H18C19.1046 17 20 16.1046 20 15V9C20 8.46315 19.7885 7.9757 19.4442 7.61644L18.3826 8.67808C18.4558 8.76506 18.5 8.87737 18.5 9V15C18.5 15.2761 18.2761 15.5 18 15.5H11.5607L10.0607 17ZM21 10H23V14H21V10Z" />
</svg>
