<svg class="iconigniter" width="24" height="24" viewBox="0 0 24 24" fill="currentColor"  xmlns="http://www.w3.org/2000/svg">
<path fill-rule="evenodd" clip-rule="evenodd" d="M4 8.5H18C18.2761 8.5 18.5 8.72386 18.5 9V15C18.5 15.2761 18.2761 15.5 18 15.5H4C3.72386 15.5 3.5 15.2761 3.5 15V9C3.5 8.72386 3.72386 8.5 4 8.5ZM2 9C2 7.89543 2.89543 7 4 7H18C19.1046 7 20 7.89543 20 9V15C20 16.1046 19.1046 17 18 17H4C2.89543 17 2 16.1046 2 15V9ZM8 10H6V14H8V10ZM10 10H12V14H10V10ZM23 10H21V14H23V10Z" />
</svg>
