<svg class="iconigniter" width="24" height="24" viewBox="0 0 24 24" fill="currentColor"  xmlns="http://www.w3.org/2000/svg">
<path fill-rule="evenodd" clip-rule="evenodd" d="M7 15.9393L1.46967 21.4697L2.53033 22.5303L22.5303 2.53033L21.4697 1.46967L16.3703 6.56904C15.516 5.03655 13.8791 4 12 4C9.23857 4 7 6.23858 7 9V15.9393ZM8.5 14.4393L15.2474 7.69196C14.7293 6.40692 13.4706 5.5 12 5.5C10.067 5.5 8.5 7.06701 8.5 9V14.4393ZM7.62132 20C7.44803 20 7.28596 19.9728 7.13717 19.9235L8.56066 18.5H16.3787C15.8161 17.9374 15.5 17.1743 15.5 16.3787V11.5607L17 10.0607V16.3787C17 16.7765 17.158 17.158 17.4393 17.4393C18.3843 18.3843 17.715 20 16.3787 20H13.7321C13.6454 20.1501 13.5389 20.2895 13.4142 20.4142C13.0391 20.7893 12.5304 21 12 21C11.4696 21 10.9609 20.7893 10.5858 20.4142C10.4611 20.2895 10.3546 20.1501 10.2679 20H7.62132Z" />
</svg>
