<svg class="iconigniter" width="24" height="24" viewBox="0 0 24 24" fill="currentColor"  xmlns="http://www.w3.org/2000/svg">
<path fill-rule="evenodd" clip-rule="evenodd" d="M8.49999 16.3787V9C8.49999 7.06702 10.067 5.5 12 5.5C13.933 5.5 15.5 7.06702 15.5 9V16.3787C15.5 17.1743 15.8161 17.9374 16.3787 18.5H7.6213C8.18392 17.9374 8.49999 17.1743 8.49999 16.3787ZM6.99999 9V16.3787C6.99999 16.7765 6.84194 17.158 6.56066 17.4393C5.61572 18.3843 6.28497 20 7.6213 20H10.2679C10.3546 20.1501 10.4611 20.2896 10.5858 20.4142C10.9608 20.7893 11.4696 21 12 21C12.5304 21 13.0391 20.7893 13.4142 20.4142C13.5389 20.2896 13.6454 20.1501 13.7321 20H16.3787C17.715 20 18.3843 18.3843 17.4393 17.4393C17.158 17.158 17 16.7765 17 16.3787V9C17 6.23859 14.7614 4 12 4C9.23858 4 6.99999 6.23859 6.99999 9Z" />
</svg>
