<svg class="iconigniter" width="24" height="24" viewBox="0 0 24 24" fill="currentColor"  xmlns="http://www.w3.org/2000/svg">
<path fill-rule="evenodd" clip-rule="evenodd" d="M6.00003 3.49994H18C18.2762 3.49994 18.5 3.7238 18.5 3.99994V19.9999C18.5 20.2761 18.2762 20.4999 18 20.4999H6.00003C5.72389 20.4999 5.50003 20.2761 5.50003 19.9999V3.99994C5.50003 3.7238 5.72389 3.49994 6.00003 3.49994ZM4.00003 3.99994C4.00003 2.89537 4.89546 1.99994 6.00003 1.99994H18C19.1046 1.99994 20 2.89537 20 3.99994V19.9999C20 21.1045 19.1046 21.9999 18 21.9999H6.00003C4.89546 21.9999 4.00003 21.1045 4.00003 19.9999V3.99994ZM8.50003 10.125V6.84369H15.5V10.125H8.50003ZM7.00003 6.34369C7.00003 5.7914 7.44775 5.34369 8.00003 5.34369H16C16.5523 5.34369 17 5.7914 17 6.34369V10.625C17 11.1773 16.5523 11.625 16 11.625H8.00003C7.44775 11.625 7.00003 11.1773 7.00003 10.625V6.34369ZM7.00003 14.2187C7.00003 13.4766 7.60165 12.8749 8.34378 12.8749H8.50003C9.24216 12.8749 9.84378 13.4766 9.84378 14.2187C9.84378 14.9608 9.24216 15.5624 8.50003 15.5624H8.34378C7.60165 15.5624 7.00003 14.9608 7.00003 14.2187ZM8.34378 16.3124C7.60165 16.3124 7.00003 16.9141 7.00003 17.6562C7.00003 18.3983 7.60165 18.9999 8.34378 18.9999H8.50003C9.24216 18.9999 9.84378 18.3983 9.84378 17.6562C9.84378 16.9141 9.24216 16.3124 8.50003 16.3124H8.34378ZM10.5782 14.2187C10.5782 13.4766 11.1798 12.8749 11.9219 12.8749H12.0782C12.8203 12.8749 13.4219 13.4766 13.4219 14.2187C13.4219 14.9608 12.8203 15.5624 12.0782 15.5624H11.9219C11.1798 15.5624 10.5782 14.9608 10.5782 14.2187ZM11.9219 16.3124C11.1798 16.3124 10.5782 16.9141 10.5782 17.6562C10.5782 18.3983 11.1798 18.9999 11.9219 18.9999H12.0782C12.8203 18.9999 13.4219 18.3983 13.4219 17.6562C13.4219 16.9141 12.8203 16.3124 12.0782 16.3124H11.9219ZM14.1559 14.2187C14.1559 13.4766 14.7575 12.8749 15.4997 12.8749H15.6559C16.398 12.8749 16.9997 13.4766 16.9997 14.2187C16.9997 14.9608 16.398 15.5624 15.6559 15.5624H15.4997C14.7575 15.5624 14.1559 14.9608 14.1559 14.2187ZM15.4997 16.3124C14.7575 16.3124 14.1559 16.9141 14.1559 17.6562C14.1559 18.3983 14.7575 18.9999 15.4997 18.9999H15.6559C16.398 18.9999 16.9997 18.3983 16.9997 17.6562C16.9997 16.9141 16.398 16.3124 15.6559 16.3124H15.4997Z" />
</svg>
