<svg class="iconigniter" width="24" height="24" viewBox="0 0 24 24" fill="currentColor"  xmlns="http://www.w3.org/2000/svg">
<path fill-rule="evenodd" clip-rule="evenodd" d="M6.25002 7V5.5H4.00002C3.72387 5.5 3.50002 5.72386 3.50002 6V8.25H20.5V6C20.5 5.72386 20.2762 5.5 20 5.5H17.75V7H16.25V5.5H12.75V7H11.25V5.5H7.75002V7H6.25002ZM3.50002 18V9.75H20.5V12H22V6C22 4.89543 21.1046 4 20 4H17.75V2H16.25V4H12.75V2H11.25V4H7.75002V2H6.25002V4H4.00002C2.89545 4 2.00002 4.89543 2.00002 6V18C2.00002 19.1046 2.89545 20 4.00002 20H11V18.5H4.00002C3.72387 18.5 3.50002 18.2761 3.50002 18ZM22 17.75H16.8107L18.5303 19.4697L17.4697 20.5303L14.4697 17.5303L13.9394 17L14.4697 16.4697L17.4697 13.4697L18.5303 14.5303L16.8107 16.25H22V17.75Z" />
</svg>
