<svg class="iconigniter" width="24" height="24" viewBox="0 0 24 24" fill="currentColor"  xmlns="http://www.w3.org/2000/svg">
<path fill-rule="evenodd" clip-rule="evenodd" d="M6.25 5.5V7H7.75V5.5H11.25V7H12.75V5.5H16.25V6.72604L14.726 8.25H3.5V6C3.5 5.72386 3.72386 5.5 4 5.5H6.25ZM13.226 9.75H3.5V18C3.5 18.2761 3.72386 18.5 4 18.5H4.47604L13.226 9.75ZM3.16031 19.8157C2.47522 19.4984 2 18.8047 2 18V6C2 4.89543 2.89543 4 4 4H6.25V2H7.75V4H11.25V2H12.75V4H16.25V2H17.75V4H18.976L20.976 2L22 3.02396L3.02396 22L2 20.976L3.16031 19.8157ZM20.5 8.25H18.774L17.274 9.75H20.5V18C20.5 18.2761 20.2761 18.5 20 18.5H8.52395L7.02395 20H20C21.1046 20 22 19.1046 22 18V6C22 5.71297 21.9395 5.44006 21.8306 5.19331L20.5 6.52395V8.25Z" />
</svg>
