<svg class="iconigniter" width="24" height="24" viewBox="0 0 24 24" fill="currentColor"  xmlns="http://www.w3.org/2000/svg">
<path fill-rule="evenodd" clip-rule="evenodd" d="M6.25 7V5.5H3.99994C3.7238 5.5 3.49994 5.72386 3.49994 6V8.25H20.4999V6C20.4999 5.72386 20.2761 5.5 19.9999 5.5H17.75V7H16.25V5.5H12.75V7H11.25V5.5H7.75V7H6.25ZM3.49994 18V9.75H20.4999V12H21.9999V6C21.9999 4.89543 21.1045 4 19.9999 4H17.75V2H16.25V4H12.75V2H11.25V4H7.75V2H6.25V4H3.99994C2.89537 4 1.99994 4.89543 1.99994 6V18C1.99994 19.1046 2.89537 20 3.99994 20H13V18.5H3.99994C3.7238 18.5 3.49994 18.2761 3.49994 18ZM20.7071 16.8284L16.4321 21.1035L15.5482 21.2803L15.7249 20.3964L20 16.1213L20.7071 16.8284ZM22.8284 16.8284L17.1716 22.4853L13.636 23.1924L14.3431 19.6569L20 14L22.8284 16.8284Z" />
</svg>
