<svg class="iconigniter" width="24" height="24" viewBox="0 0 24 24" fill="currentColor"  xmlns="http://www.w3.org/2000/svg">
<path fill-rule="evenodd" clip-rule="evenodd" d="M6.25 7V5.5H4C3.72386 5.5 3.5 5.72386 3.5 6V8.25H20.5V6C20.5 5.72386 20.2761 5.5 20 5.5H17.75V7H16.25V5.5H12.75V7H11.25V5.5H7.75V7H6.25ZM3.5 18V9.75H20.5V12H22V6C22 4.89543 21.1046 4 20 4H17.75V2H16.25V4H12.75V2H11.25V4H7.75V2H6.25V4H4C2.89543 4 2 4.89543 2 6V18C2 19.1046 2.89543 20 4 20H11V18.5H4C3.72386 18.5 3.5 18.2761 3.5 18ZM17.25 22V18.75H14V17.25H17.25V14H18.75V17.25H22V18.75H18.75V22H17.25Z" />
</svg>
