<svg class="iconigniter" width="24" height="24" viewBox="0 0 24 24" fill="currentColor"  xmlns="http://www.w3.org/2000/svg">
<path fill-rule="evenodd" clip-rule="evenodd" d="M6.25 7V5.5H3.99994C3.7238 5.5 3.49994 5.72386 3.49994 6V8.25H20.4999V6C20.4999 5.72386 20.2761 5.5 19.9999 5.5H17.75V7H16.25V5.5H12.75V7H11.25V5.5H7.75V7H6.25ZM3.49994 18V9.75H20.4999V12H21.9999V6C21.9999 4.89543 21.1045 4 19.9999 4H17.75V2H16.25V4H12.75V2H11.25V4H7.75V2H6.25V4H3.99994C2.89537 4 1.99994 4.89543 1.99994 6V18C1.99994 19.1046 2.89537 20 3.99994 20H12V18.5H3.99994C3.7238 18.5 3.49994 18.2761 3.49994 18ZM16.7499 16.0049V17H19.2499V16.0049L19.2499 16.0025C19.2497 15.9967 19.2492 15.9847 19.2479 15.9675C19.2455 15.9327 19.2401 15.8782 19.2289 15.8108C19.2058 15.6724 19.1611 15.4994 19.0791 15.3354C18.9986 15.1744 18.8896 15.0362 18.7402 14.9365C18.5954 14.84 18.3687 14.75 17.9999 14.75C17.6312 14.75 17.4045 14.84 17.2597 14.9365C17.1103 15.0362 17.0013 15.1744 16.9208 15.3354C16.8388 15.4994 16.794 15.6724 16.771 15.8108C16.7597 15.8782 16.7544 15.9327 16.7519 15.9675C16.7507 15.9847 16.7502 15.9967 16.75 16.0025L16.7499 16.0049ZM15.2499 16V17H13.9999V18.5V20.5V22H15.4999H20.4999H21.9999V20.5V18.5V17H20.7499V16H19.9999C20.7499 16 20.7499 15.9996 20.7499 15.9992L20.7499 15.9984L20.7499 15.9967L20.7499 15.9926L20.7498 15.9822L20.749 15.9526C20.7483 15.9291 20.7468 15.8981 20.7441 15.8606C20.7388 15.786 20.7285 15.6843 20.7085 15.5642C20.669 15.3276 20.5888 15.0006 20.4208 14.6646C20.2513 14.3256 19.9853 13.9638 19.5722 13.6885C19.1545 13.41 18.6312 13.25 17.9999 13.25C17.3687 13.25 16.8454 13.41 16.4277 13.6885C16.0146 13.9638 15.7486 14.3256 15.5791 14.6646C15.4111 15.0006 15.3308 15.3276 15.2914 15.5642C15.2714 15.6843 15.2611 15.786 15.2558 15.8606C15.2531 15.8981 15.2516 15.9291 15.2508 15.9526L15.2501 15.9822L15.25 15.9926L15.2499 15.9967L15.2499 15.9984L15.2499 15.9992C15.2499 15.9996 15.2499 16 15.9999 16H15.2499ZM15.4999 18.5V20.5H20.4999V18.5H15.4999Z" />
</svg>
