<svg class="iconigniter" width="24" height="24" viewBox="0 0 24 24" fill="currentColor"  xmlns="http://www.w3.org/2000/svg">
<path fill-rule="evenodd" clip-rule="evenodd" d="M6.25 5.5V7H7.75V5.5H11.25V7H12.75V5.5H16.25V7H17.75V5.5H20C20.2761 5.5 20.5 5.72386 20.5 6V8.25H3.5V6C3.5 5.72386 3.72386 5.5 4 5.5H6.25ZM3.5 9.75V18C3.5 18.2761 3.72386 18.5 4 18.5H11V20H4C2.89543 20 2 19.1046 2 18V6C2 4.89543 2.89543 4 4 4H6.25V2H7.75V4H11.25V2H12.75V4H16.25V2H17.75V4H20C21.1046 4 22 4.89543 22 6V12H20.5V9.75H3.5ZM17.5962 17.6569L15.2981 19.955L16.3588 21.0156L18.6569 18.7175L20.955 21.0156L22.0156 19.955L19.7175 17.6569L22.0156 15.3588L20.955 14.2981L18.6569 16.5962L16.3588 14.2981L15.2981 15.3588L17.5962 17.6569Z" />
</svg>
