<svg class="iconigniter" width="24" height="24" viewBox="0 0 24 24" fill="currentColor"  xmlns="http://www.w3.org/2000/svg">
<path fill-rule="evenodd" clip-rule="evenodd" d="M6.25 5.5V7H7.75V5.5H11.25V7H12.75V5.5H16.25V7H17.75V5.5H20C20.2761 5.5 20.5 5.72386 20.5 6V8.25H3.5V6C3.5 5.72386 3.72386 5.5 4 5.5H6.25ZM3.5 9.75V18C3.5 18.2761 3.72386 18.5 4 18.5H12V20H4C2.89543 20 2 19.1046 2 18V6C2 4.89543 2.89543 4 4 4H6.25V2H7.75V4H11.25V2H12.75V4H16.25V2H17.75V4H20C21.1046 4 22 4.89543 22 6V11H20.5V9.75H3.5ZM18.25 20.1893V15H19.75V20.1893L21.4697 18.4697L22.5303 19.5303L19.5303 22.5303L19 23.0607L18.4697 22.5303L15.4697 19.5303L16.5303 18.4697L18.25 20.1893Z" />
</svg>
