<svg class="iconigniter" width="24" height="24" viewBox="0 0 24 24" fill="currentColor"  xmlns="http://www.w3.org/2000/svg">
<path fill-rule="evenodd" clip-rule="evenodd" d="M6.25003 5.5V7H7.75003V5.5H11.25V7H12.75V5.5H16.25V7H17.75V5.5H20C20.2761 5.5 20.5 5.72386 20.5 6V8.25H3.49997V6C3.49997 5.72386 3.72383 5.5 3.99997 5.5H6.25003ZM3.49997 9.75V18C3.49997 18.2761 3.72383 18.5 3.99997 18.5H13V20H3.99997C2.8954 20 1.99997 19.1046 1.99997 18V6C1.99997 4.89543 2.8954 4 3.99997 4H6.25003V2H7.75003V4H11.25V2H12.75V4H16.25V2H17.75V4H20C21.1045 4 22 4.89543 22 6V12H20.5V9.75H3.49997ZM16.7892 14V21H18.2892V14H16.7892ZM20.5 14V21H22V14H20.5Z" />
</svg>
