<svg class="iconigniter" width="24" height="24" viewBox="0 0 24 24" fill="currentColor"  xmlns="http://www.w3.org/2000/svg">
<path fill-rule="evenodd" clip-rule="evenodd" d="M6.25002 5.5V7H7.75002V5.5H11.25V7H12.75V5.5H16.25V7H17.75V5.5H20C20.2762 5.5 20.5 5.72386 20.5 6V8.25H3.50002V6C3.50002 5.72386 3.72387 5.5 4.00002 5.5H6.25002ZM3.50002 9.75V18C3.50002 18.2761 3.72387 18.5 4.00002 18.5H11V20H4.00002C2.89545 20 2.00002 19.1046 2.00002 18V6C2.00002 4.89543 2.89545 4 4.00002 4H6.25002V2H7.75002V4H11.25V2H12.75V4H16.25V2H17.75V4H20C21.1046 4 22 4.89543 22 6V12H20.5V9.75H3.50002ZM18.9394 17.75H13.75V16.25H18.9394L17.2197 14.5303L18.2803 13.4697L21.2803 16.4697L21.8107 17L21.2803 17.5303L18.2803 20.5303L17.2197 19.4697L18.9394 17.75Z" />
</svg>
