<svg class="iconigniter" width="24" height="24" viewBox="0 0 24 24" fill="currentColor"  xmlns="http://www.w3.org/2000/svg">
<path fill-rule="evenodd" clip-rule="evenodd" d="M18 12.5H6C5.72386 12.5 5.5 12.2761 5.5 12V6.44918C5.5 6.13287 5.79001 5.89604 6.09994 5.95927L18.0999 8.40718C18.3328 8.45468 18.5 8.65947 18.5 8.89709V12C18.5 12.2761 18.2761 12.5 18 12.5ZM6 14H18C19.1046 14 20 13.1046 20 12V8.89709C20 7.94661 19.3311 7.12743 18.3998 6.93745L6.39976 4.48953C5.16006 4.23664 4 5.18395 4 6.44918V12C4 13.1046 4.89543 14 6 14ZM7 19.5C7.82843 19.5 8.5 18.8284 8.5 18C8.5 17.1715 7.82843 16.5 7 16.5C6.17157 16.5 5.5 17.1715 5.5 18C5.5 18.8284 6.17157 19.5 7 19.5ZM7 21C8.65685 21 10 19.6568 10 18C10 16.3431 8.65685 15 7 15C5.34315 15 4 16.3431 4 18C4 19.6568 5.34315 21 7 21ZM17 19.5C17.8284 19.5 18.5 18.8284 18.5 18C18.5 17.1715 17.8284 16.5 17 16.5C16.1716 16.5 15.5 17.1715 15.5 18C15.5 18.8284 16.1716 19.5 17 19.5ZM17 21C18.6569 21 20 19.6568 20 18C20 16.3431 18.6569 15 17 15C15.3431 15 14 16.3431 14 18C14 19.6568 15.3431 21 17 21Z" />
</svg>
