<svg class="iconigniter" width="24" height="24" viewBox="0 0 24 24" fill="currentcolor" xmlns="http://www.w3.org/2000/svg">
<path fill-rule="evenodd" clip-rule="evenodd" d="M15.5 3.67544C15.8364 3.75522 16.1666 3.86188 16.4874 3.99478C17.2761 4.32144 17.9926 4.80022 18.5962 5.40381C19.1998 6.00739 19.6786 6.72394 20.0052 7.51256C20.1381 7.83342 20.2448 8.16365 20.3246 8.5H15.5V3.67544ZM22 10C22 9.49543 21.9523 8.99324 21.8581 8.5C21.7562 7.96625 21.6 7.44298 21.391 6.93853C20.989 5.96793 20.3997 5.08601 19.6569 4.34315C18.914 3.60028 18.0321 3.011 17.0615 2.60896C16.557 2.40002 16.0338 2.24377 15.5 2.14188C15.0068 2.04773 14.5046 2 14 2V3.5V8.5V10H15.5L20.5 10H22ZM12 12H13.5H18.5H20C20 12.5058 19.9521 13.0079 19.8581 13.5C19.6582 14.5474 19.2498 15.5495 18.6518 16.4446C17.7727 17.7602 16.5233 18.7855 15.0615 19.391C13.5997 19.9965 11.9911 20.155 10.4393 19.8463C8.88743 19.5376 7.46197 18.7757 6.34315 17.6569C5.22433 16.538 4.4624 15.1126 4.15372 13.5607C3.84504 12.0089 4.00347 10.4003 4.60897 8.93853C5.21447 7.47672 6.23985 6.22729 7.55544 5.34824C8.45051 4.75018 9.45256 4.34183 10.5 4.14188C10.9921 4.04794 11.4942 4 12 4V5.5V10.5V12ZM12 13.5H18.3246C18.1469 14.249 17.8367 14.9645 17.4046 15.6112C16.6903 16.6801 15.6752 17.5132 14.4874 18.0052C13.2997 18.4972 11.9928 18.6259 10.7319 18.3751C9.47104 18.1243 8.31285 17.5052 7.40381 16.5962C6.49477 15.6872 5.8757 14.529 5.6249 13.2681C5.3741 12.0072 5.50282 10.7003 5.99479 9.51256C6.48676 8.32484 7.31988 7.30968 8.3888 6.59545C9.03552 6.16332 9.75099 5.85309 10.5 5.67544V12V13.5H12Z" />
</svg>
