<svg class="iconigniter" width="24" height="24" viewBox="0 0 24 24" fill="currentColor"  xmlns="http://www.w3.org/2000/svg">
<path fill-rule="evenodd" clip-rule="evenodd" d="M10.6899 5.01684L12 3.94096L13.3102 5.01684C13.7967 5.41641 14.4162 5.61768 15.0447 5.58042L16.737 5.4801L17.1645 7.12059C17.3233 7.72986 17.7061 8.25677 18.2365 8.59606L19.6646 9.50962L19.0462 11.0881C18.8166 11.6743 18.8166 12.3257 19.0462 12.9119L19.6646 14.4904L18.2365 15.4039C17.7062 15.7432 17.3233 16.2701 17.1645 16.8794L16.737 18.5199L15.0447 18.4196C14.4162 18.3823 13.7967 18.5836 13.3102 18.9832L12 20.059L10.6899 18.9832C10.2033 18.5836 9.58385 18.3823 8.95534 18.4196L7.26302 18.5199L6.83548 16.8794C6.67669 16.2701 6.29386 15.7432 5.76348 15.4039L4.3354 14.4904L4.95377 12.9119C5.18342 12.3257 5.18343 11.6743 4.95377 11.0881L4.3354 9.50962L5.76348 8.59606C6.29386 8.25678 6.67669 7.72986 6.83548 7.12059L7.26302 5.4801L8.95534 5.58042C9.58385 5.61768 10.2033 5.41642 10.6899 5.01684ZM11.3654 2.52116C11.7342 2.21824 12.2658 2.21824 12.6346 2.52116L14.2621 3.85762C14.4567 4.01745 14.7045 4.09795 14.9559 4.08305L17.0581 3.95843C17.5346 3.93018 17.9646 4.2426 18.085 4.70448L18.616 6.7423C18.6796 6.98601 18.8327 7.19677 19.0448 7.33249L20.8188 8.46731C21.2209 8.72452 21.3851 9.23003 21.211 9.67445L20.4429 11.6352C20.351 11.8697 20.351 12.1303 20.4429 12.3648L21.211 14.3256C21.3851 14.77 21.2209 15.2755 20.8188 15.5327L19.0448 16.6675C18.8327 16.8032 18.6796 17.014 18.616 17.2577L18.085 19.2955C17.9646 19.7574 17.5346 20.0698 17.0581 20.0416L14.9559 19.917C14.7045 19.9021 14.4567 19.9826 14.2621 20.1424L12.6346 21.4788C12.2658 21.7818 11.7342 21.7818 11.3654 21.4788L9.73791 20.1424C9.54328 19.9826 9.29551 19.9021 9.0441 19.917L6.94191 20.0416C6.46544 20.0698 6.03543 19.7574 5.91505 19.2955L5.38396 17.2577C5.32045 17.014 5.16732 16.8032 4.95516 16.6675L3.1812 15.5327C2.77913 15.2755 2.61488 14.77 2.78898 14.3256L3.55711 12.3648C3.64898 12.1303 3.64898 11.8697 3.55711 11.6352L2.78898 9.67445C2.61488 9.23003 2.77913 8.72452 3.1812 8.46731L4.95516 7.33249C5.16732 7.19677 5.32045 6.98601 5.38396 6.7423L5.91505 4.70448C6.03543 4.2426 6.46544 3.93018 6.94191 3.95843L9.0441 4.08305C9.29551 4.09795 9.54328 4.01745 9.73791 3.85762L11.3654 2.52116ZM15.5 12C15.5 13.933 13.933 15.5 12 15.5C10.067 15.5 8.50001 13.933 8.50001 12C8.50001 10.067 10.067 8.5 12 8.5C13.933 8.5 15.5 10.067 15.5 12ZM17 12C17 14.7614 14.7614 17 12 17C9.23858 17 7.00001 14.7614 7.00001 12C7.00001 9.23858 9.23858 7 12 7C14.7614 7 17 9.23858 17 12Z" />
</svg>
