<svg class="iconigniter" width="24" height="24" viewBox="0 0 24 24" fill="currentColor"  xmlns="http://www.w3.org/2000/svg">
<path fill-rule="evenodd" clip-rule="evenodd" d="M8.37408 3.68652L8.37408 7.31336L4.06066 2.99994L3 4.0606L7.37592 8.43652H3.62408L3.62408 9.93652L9.87408 9.93652L9.87408 3.68652L8.37408 3.68652ZM15.6259 20.3134V16.6865L19.9393 20.9999L21 19.9393L16.6241 15.5634H20.3759V14.0634L14.1259 14.0634V20.3134H15.6259ZM7.31342 15.6259H3.68658L3.68658 14.1259H9.93658L9.93658 20.3759H8.43658V16.624L4.06066 20.9999L3 19.9393L7.31342 15.6259ZM20.3134 8.37402L16.6866 8.37402L21 4.0606L19.9393 2.99994L15.5634 7.37586V3.62402L14.0634 3.62402L14.0634 9.87402L20.3134 9.87402V8.37402Z" />
</svg>
