<svg class="iconigniter" width="24" height="24" viewBox="0 0 24 24" fill="currentColor"  xmlns="http://www.w3.org/2000/svg">
<path fill-rule="evenodd" clip-rule="evenodd" d="M4 18.9846L2 20.9852L3.02087 22L22 3.01477L20.9791 2L19.8168 3.16268C19.5 2.47631 18.8056 2 18 2H12.25H11.5L10.75 2.75L4.75 8.75L4 9.5V10.25V18.9846ZM5.5 17.4841L18.5 4.47993V4C18.5 3.72386 18.2761 3.5 18 3.5H12.25V7.5C12.25 9.01878 11.0188 10.25 9.5 10.25H5.5V17.4841ZM6 22C5.71204 22 5.43829 21.9391 5.19091 21.8296L6.52007 20.5H18C18.2761 20.5 18.5 20.2761 18.5 20V8.51621L20 7.01573V20C20 21.1046 19.1046 22 18 22H6ZM10.75 4.87132L6.87132 8.75H9.5C10.1904 8.75 10.75 8.19036 10.75 7.5V4.87132Z" />
</svg>
