<svg class="iconigniter" width="24" height="24" viewBox="0 0 24 24" fill="currentColor"  xmlns="http://www.w3.org/2000/svg">
<path fill-rule="evenodd" clip-rule="evenodd" d="M10.75 2.75L4.75 8.75L4 9.5V10.25V20C4 21.1046 4.89543 22 6 22H12V20.5H6C5.72386 20.5 5.5 20.2761 5.5 20V10.25H9.5C11.0188 10.25 12.25 9.01878 12.25 7.5V3.5H18C18.2761 3.5 18.5 3.72386 18.5 4V13H20V4C20 2.89543 19.1046 2 18 2H12.25H11.5L10.75 2.75ZM10.75 4.87132L6.87132 8.75H9.5C10.1904 8.75 10.75 8.19036 10.75 7.5V4.87132ZM21 18.25H15.8107L17.5303 16.5303L16.4697 15.4697L13.4697 18.4697L12.9393 19L13.4697 19.5303L16.4697 22.5303L17.5303 21.4697L15.8107 19.75H21V18.25Z" />
</svg>
