<svg class="iconigniter" width="24" height="24" viewBox="0 0 24 24" fill="currentColor"  xmlns="http://www.w3.org/2000/svg">
<path fill-rule="evenodd" clip-rule="evenodd" d="M10.75 2.75L4.75 8.75L4 9.5V10.25V20C4 21.1046 4.89543 22 6 22H12V20.5H6C5.72386 20.5 5.5 20.2761 5.5 20V10.25H9.5C11.0188 10.25 12.25 9.01878 12.25 7.5V3.5H18C18.2761 3.5 18.5 3.72386 18.5 4V13H20V4C20 2.89543 19.1046 2 18 2H12.25H11.5L10.75 2.75ZM10.75 4.87132L6.87132 8.75H9.5C10.1904 8.75 10.75 8.19036 10.75 7.5V4.87132ZM20.4853 16.8284L16.2103 21.1035L15.3264 21.2803L15.5031 20.3964L19.7782 16.1213L20.4853 16.8284ZM16.9498 22.4853L15.0077 22.8737L13.4142 23.1924L13.7329 21.5989L14.1213 19.6569L18.7175 15.0607L19.7782 14L20.8389 15.0607L21.546 15.7678L22.6066 16.8284L21.546 17.8891L16.9498 22.4853Z" />
</svg>
