<svg class="iconigniter" width="24" height="24" viewBox="0 0 24 24" fill="currentColor"  xmlns="http://www.w3.org/2000/svg">
<path fill-rule="evenodd" clip-rule="evenodd" d="M10.75 2.75L4.75 8.75L4 9.5V10.25V20C4 21.1046 4.89543 22 6 22H12V20.5H6C5.72386 20.5 5.5 20.2761 5.5 20V10.25H9.5C11.0188 10.25 12.25 9.01878 12.25 7.5V3.5H18C18.2761 3.5 18.5 3.72386 18.5 4V12H20V4C20 2.89543 19.1046 2 18 2H12.25H11.5L10.75 2.75ZM10.75 4.87132L6.87132 8.75H9.5C10.1904 8.75 10.75 8.19036 10.75 7.5V4.87132ZM16.75 16.0049V17H19.25V16.0049L19.2499 16.0025C19.2497 15.9967 19.2492 15.9847 19.248 15.9675C19.2455 15.9327 19.2402 15.8782 19.229 15.8108C19.2059 15.6724 19.1612 15.4994 19.0792 15.3354C18.9987 15.1744 18.8897 15.0362 18.7402 14.9365C18.5955 14.84 18.3688 14.75 18 14.75C17.6312 14.75 17.4045 14.84 17.2598 14.9365C17.1103 15.0362 17.0013 15.1744 16.9208 15.3354C16.8388 15.4994 16.7941 15.6724 16.771 15.8108C16.7598 15.8782 16.7545 15.9327 16.752 15.9675C16.7508 15.9847 16.7503 15.9967 16.7501 16.0025L16.75 16.0049ZM15.25 16V17H14V18.5V20.5V22H15.5H20.5H22V20.5V18.5V17H20.75V16H20C20.75 16 20.75 15.9996 20.75 15.9992L20.75 15.9984L20.75 15.9967L20.75 15.9926L20.7498 15.9822L20.7491 15.9526C20.7483 15.9291 20.7469 15.8981 20.7442 15.8606C20.7389 15.786 20.7286 15.6843 20.7085 15.5642C20.6691 15.3276 20.5888 15.0006 20.4208 14.6646C20.2513 14.3256 19.9853 13.9638 19.5723 13.6885C19.1545 13.41 18.6312 13.25 18 13.25C17.3688 13.25 16.8455 13.41 16.4277 13.6885C16.0147 13.9638 15.7487 14.3256 15.5792 14.6646C15.4112 15.0006 15.3309 15.3276 15.2915 15.5642C15.2714 15.6843 15.2611 15.786 15.2558 15.8606C15.2531 15.8981 15.2517 15.9291 15.2509 15.9526L15.2502 15.9822L15.25 15.9926L15.25 15.9967L15.25 15.9984L15.25 15.9992C15.25 15.9996 15.25 16 16 16H15.25ZM15.5 18.5V20.5H20.5V18.5H15.5Z" />
</svg>
