<svg class="iconigniter" width="24" height="24" viewBox="0 0 24 24" fill="currentColor"  xmlns="http://www.w3.org/2000/svg">
<path fill-rule="evenodd" clip-rule="evenodd" d="M10.75 2.75L4.75 8.75L4 9.5V10.25V20C4 21.1046 4.89543 22 6 22H12V20.5H6C5.72386 20.5 5.5 20.2761 5.5 20V10.25H9.5C11.0188 10.25 12.25 9.01878 12.25 7.5V3.5H18C18.2761 3.5 18.5 3.72386 18.5 4V13H20V4C20 2.89543 19.1046 2 18 2H12.25H11.5L10.75 2.75ZM10.75 4.87132L6.87132 8.75H9.5C10.1904 8.75 10.75 8.19036 10.75 7.5V4.87132ZM17 22V16.8107L18.7197 18.5303L19.7803 17.4697L16.7803 14.4697L16.25 13.9393L15.7197 14.4697L12.7197 17.4697L13.7803 18.5303L15.5 16.8107V22H17Z" />
</svg>
