<svg class="iconigniter" width="24" height="24" viewBox="0 0 24 24" fill="currentColor"  xmlns="http://www.w3.org/2000/svg">
<path fill-rule="evenodd" clip-rule="evenodd" d="M12.75 4V11.1893L14.4697 9.46967L15.5303 10.5303L12.5303 13.5303L12 14.0607L11.4697 13.5303L8.46967 10.5303L9.53033 9.46967L11.25 11.1893V4H12.75ZM3.5 17C3.5 16.7239 3.72386 16.5 4 16.5H20C20.2761 16.5 20.5 16.7239 20.5 17V18C20.5 18.2761 20.2761 18.5 20 18.5H4C3.72386 18.5 3.5 18.2761 3.5 18V17ZM2 17C2 15.8954 2.89543 15 4 15H20C21.1046 15 22 15.8954 22 17V18C22 19.1046 21.1046 20 20 20H4C2.89543 20 2 19.1046 2 18V17Z" />
</svg>
