<svg class="iconigniter" width="24" height="24" viewBox="0 0 24 24" fill="currentColor"  xmlns="http://www.w3.org/2000/svg">
<path fill-rule="evenodd" clip-rule="evenodd" d="M13.5 7.5C13.5 9.42909 13.1845 11.1065 12.7286 12.2462C12.499 12.8202 12.2631 13.1841 12.0779 13.38C12.0476 13.4119 12.0217 13.4366 12 13.4555C11.9783 13.4366 11.9524 13.4119 11.9221 13.38C11.7369 13.1841 11.501 12.8202 11.2714 12.2462C10.8155 11.1065 10.5 9.42909 10.5 7.5C10.5 5.5458 10.8249 4.50614 11.1459 3.99926C11.3995 3.59891 11.6582 3.5 12 3.5C12.3418 3.5 12.6005 3.59891 12.8541 3.99926C13.1751 4.50614 13.5 5.5458 13.5 7.5ZM11.9182 13.5134C11.9182 13.5131 11.9208 13.5118 11.926 13.51C11.9208 13.5127 11.9182 13.5136 11.9182 13.5134ZM12.074 13.51C12.0792 13.5118 12.0818 13.5131 12.0818 13.5134C12.0818 13.5136 12.0792 13.5127 12.074 13.51ZM15 7.5C15 11.6421 13.6569 15 12 15C10.3431 15 9 11.6421 9 7.5C9 3.35786 10.3431 2 12 2C13.6569 2 15 3.35786 15 7.5ZM13.5 19C13.5 19.8284 12.8284 20.5 12 20.5C11.1716 20.5 10.5 19.8284 10.5 19C10.5 18.1716 11.1716 17.5 12 17.5C12.8284 17.5 13.5 18.1716 13.5 19ZM15 19C15 20.6569 13.6569 22 12 22C10.3431 22 9 20.6569 9 19C9 17.3431 10.3431 16 12 16C13.6569 16 15 17.3431 15 19Z" />
</svg>
