<svg class="iconigniter" width="24" height="24" viewBox="0 0 24 24" fill="currentColor"  xmlns="http://www.w3.org/2000/svg">
<path fill-rule="evenodd" clip-rule="evenodd" d="M4.49998 9.24991V5.48571L7.92814 9.05099L9.00939 8.01133L5.63303 4.49991L9.24998 4.49991V2.99991H2.99998V9.24991L4.49998 9.24991ZM4.53002 4.49991L4.49998 4.52878V4.49991H4.53002ZM19.5 14.7499V18.5778L16.0406 14.9801L14.9594 16.0197L18.3057 19.4999H14.75L14.75 20.9999H21V14.7499H19.5ZM19.4713 19.4999L19.5 19.4723V19.4999H19.4713ZM19.4711 4.49991H19.5V4.52994L19.4711 4.49991ZM18.5142 4.49991L14.9489 7.92806L15.9886 9.00931L19.5 5.63295V9.24991L21 9.24991V2.99991H14.75V4.49991L18.5142 4.49991ZM5.42211 19.4999L9.25 19.4999L9.25 20.9999L3 20.9999L3 14.7499H4.5L4.5 18.3056L7.98017 14.9593L9.01983 16.0406L5.42211 19.4999ZM4.52761 19.4999L4.5 19.4712V19.4999H4.52761Z" />
</svg>
