<svg class="iconigniter" width="24" height="24" viewBox="0 0 24 24" fill="currentColor"  xmlns="http://www.w3.org/2000/svg">
<path fill-rule="evenodd" clip-rule="evenodd" d="M3.13537 19.804L1.46967 21.4697L2.53033 22.5303L5.06065 20H5.06433L6.56433 18.5H6.56065L16.5607 8.5H16.5643L18.0643 7H18.0607L22.5303 2.53033L21.4697 1.46967L15.9393 7H12L10.0997 4.71963C9.71971 4.26365 9.15681 4 8.56325 4H4C2.89543 4 2 4.89543 2 6V18C2 18.7949 2.46371 19.4815 3.13537 19.804ZM4.43933 18.5L14.4393 8.5H12H11.2974L10.8477 7.96028L8.94736 5.67991C8.85236 5.56591 8.71164 5.5 8.56325 5.5H4C3.72386 5.5 3.5 5.72386 3.5 6V18C3.5 18.2761 3.72386 18.5 4 18.5H4.43933ZM20 20H7.18565L8.68565 18.5H20C20.2761 18.5 20.5 18.2761 20.5 18V9C20.5 8.72386 20.2761 8.5 20 8.5H18.6857L20.1779 7.0078C21.1991 7.09779 22 7.95537 22 9V18C22 19.1046 21.1046 20 20 20Z" />
</svg>
