<svg class="iconigniter" width="24" height="24" viewBox="0 0 24 24" fill="currentColor"  xmlns="http://www.w3.org/2000/svg">
<path fill-rule="evenodd" clip-rule="evenodd" d="M11.2974 8.5L10.8477 7.96028L8.94736 5.67991C8.85236 5.56591 8.71164 5.5 8.56325 5.5H4C3.72386 5.5 3.5 5.72386 3.5 6V18C3.5 18.2761 3.72386 18.5 4 18.5H12V20H4C2.89543 20 2 19.1046 2 18V6C2 4.89543 2.89543 4 4 4H8.56325C9.15681 4 9.71971 4.26365 10.0997 4.71963L12 7H17H20C21.1046 7 22 7.89543 22 9V12H20.5V9C20.5 8.72386 20.2761 8.5 20 8.5H17H12H11.2974ZM16.5 22V16.8107L14.7803 18.5303L13.7197 17.4697L16.7197 14.4697L17.25 13.9393L17.7803 14.4697L20.7803 17.4697L19.7197 18.5303L18 16.8107V22H16.5Z" />
</svg>
