<svg class="iconigniter" width="24" height="24" viewBox="0 0 24 24" fill="currentColor"  xmlns="http://www.w3.org/2000/svg">
<path fill-rule="evenodd" clip-rule="evenodd" d="M11.2974 8.5L10.8477 7.96028L8.94736 5.67991C8.85236 5.56591 8.71164 5.5 8.56325 5.5H4C3.72386 5.5 3.5 5.72386 3.5 6V18C3.5 18.2761 3.72386 18.5 4 18.5H12V20H4C2.89543 20 2 19.1046 2 18V6C2 4.89543 2.89543 4 4 4H8.56325C9.15681 4 9.71971 4.26365 10.0997 4.71963L12 7H17H20C21.1046 7 22 7.89543 22 9V12H20.5V9C20.5 8.72386 20.2761 8.5 20 8.5H17H12H11.2974ZM22 16.25H16.8107L18.5303 14.5303L17.4697 13.4697L14.4697 16.4697L13.9393 17L14.4697 17.5303L17.4697 20.5303L18.5303 19.4697L16.8107 17.75H22V16.25Z" />
</svg>
