<svg class="iconigniter" width="24" height="24" viewBox="0 0 24 24" fill="currentColor"  xmlns="http://www.w3.org/2000/svg">
<path fill-rule="evenodd" clip-rule="evenodd" d="M11.2974 8.5L8.94736 5.67991C8.85236 5.56591 8.71164 5.5 8.56325 5.5H4C3.72386 5.5 3.5 5.72386 3.5 6V18C3.5 18.2761 3.72386 18.5 4 18.5H20C20.2761 18.5 20.5 18.2761 20.5 18V9C20.5 8.72386 20.2761 8.5 20 8.5H11.2974ZM4 4C2.89543 4 2 4.89543 2 6V18C2 19.1046 2.89543 20 4 20H20C21.1046 20 22 19.1046 22 18V9C22 7.89543 21.1046 7 20 7H12L10.0997 4.71963C9.71971 4.26365 9.15681 4 8.56325 4H4Z" />
</svg>
