<svg class="iconigniter" width="24" height="24" viewBox="0 0 24 24" fill="currentColor"  xmlns="http://www.w3.org/2000/svg">
<path fill-rule="evenodd" clip-rule="evenodd" d="M7.00006 18.0003L7 9.00002C7 8.9996 7.00027 4.00003 12 4C16.9997 3.99997 17.0001 8.99944 17.0001 9V18C17.0001 18.738 16.1077 19.1077 15.5858 18.5858C15.2623 18.2622 14.7377 18.2622 14.4142 18.5858L14 19C13.4477 19.5523 12.5522 19.5523 11.9999 19C11.4476 18.4477 10.5521 18.4477 9.99984 19C9.44754 19.5523 8.55208 19.5523 7.99978 19L7.00006 18.0003ZM8.50006 17.379L9.00068 17.8796C10.1221 16.8212 11.8777 16.8212 12.9991 17.8796L13.3535 17.5251C13.9362 16.9425 14.7508 16.7332 15.5001 16.8972V9.0018C15.5001 9.00344 15.5001 9.00424 15.5 9.00424C15.4995 9.00425 15.4842 8.07229 15.0333 7.17068C14.8098 6.72365 14.498 6.32226 14.0585 6.02927C13.6284 5.74253 12.9875 5.49999 12 5.5C11.0125 5.50001 10.3716 5.74256 9.94151 6.0293C9.50199 6.3223 9.19025 6.7237 8.96672 7.17073C8.51587 8.07233 8.50053 9.00426 8.50002 9.00425C8.5 9.00425 8.5 9.00351 8.5 9.00201L8.50006 17.379ZM9.06044 17.9393C9.0604 17.9393 9.06048 17.9394 9.06044 17.9393Z" />
</svg>
