<svg class="iconigniter" width="24" height="24" viewBox="0 0 24 24" fill="currentColor"  xmlns="http://www.w3.org/2000/svg">
<path fill-rule="evenodd" clip-rule="evenodd" d="M8.5 6.17157V4C8.5 3.72386 8.72386 3.5 9 3.5H15C15.2761 3.5 15.5 3.72386 15.5 4V6.17157C15.5 6.30418 15.4473 6.43136 15.3536 6.52513L13.3252 8.55343L13.2978 8.53148C13.251 8.58992 13.2038 8.65358 13.1564 8.72224L12.3536 9.52513C12.1583 9.72039 11.8417 9.72039 11.6464 9.52513L8.64645 6.52513C8.55268 6.43136 8.5 6.30418 8.5 6.17157ZM12.2914 11.1504C12.0584 11.1845 11.8205 11.1774 11.5895 11.1292C11.654 11.6643 11.6532 12.2522 11.5531 12.8787C11.8071 12.8208 12.0702 12.8129 12.3266 12.8551C12.2315 12.2457 12.2302 11.673 12.2914 11.1504ZM14.421 14.421L16.4142 16.4142C16.7893 16.7893 17 17.298 17 17.8284V20C17 21.1046 16.1046 22 15 22H9C7.89543 22 7 21.1046 7 20V17.8284C7 17.298 7.21071 16.7893 7.58579 16.4142L9.36364 14.6364L9.34882 14.6279C10.7767 12.1291 9.91458 10.0938 9.41435 9.46852L9.44444 9.44444L7.58579 7.58579C7.21071 7.21071 7 6.70201 7 6.17157V4C7 2.89543 7.89543 2 9 2H15C16.1046 2 17 2.89543 17 4V6.17157C17 6.70201 16.7893 7.21071 16.4142 7.58579L14.3241 9.67595C13.8448 10.4476 13.2741 12.2445 14.421 14.421ZM13.208 15.3293C13.216 15.3435 13.2241 15.3578 13.2323 15.3721L13.2441 15.3654L15.3536 17.4749C15.4473 17.5686 15.5 17.6958 15.5 17.8284V20C15.5 20.2761 15.2761 20.5 15 20.5H9C8.72386 20.5 8.5 20.2761 8.5 20L8.5 17.8284C8.5 17.6958 8.55268 17.5686 8.64645 17.4749L11.6464 14.4749C11.8417 14.2796 12.1583 14.2796 12.3536 14.4749L13.208 15.3293Z" />
</svg>
