<svg class="iconigniter" width="24" height="24" viewBox="0 0 24 24" fill="currentColor"  xmlns="http://www.w3.org/2000/svg">
<path fill-rule="evenodd" clip-rule="evenodd" d="M13.6464 5.40381L15.182 3.86828C15.3772 3.67301 15.6938 3.67301 15.8891 3.86828L20.1317 8.11092C20.327 8.30618 20.327 8.62276 20.1317 8.81802L18.5962 10.3536C18.5024 10.4473 18.3752 10.5 18.2426 10.5H15.3742L15.3703 10.4651C15.2959 10.4733 15.2174 10.4849 15.1354 10.5H14C13.7238 10.5 13.5 10.2761 13.5 10L13.5 5.75736C13.5 5.62476 13.5527 5.49758 13.6464 5.40381ZM12.8068 11.6053C12.6179 11.4646 12.4547 11.2915 12.3255 11.094C11.9928 11.518 11.5764 11.9331 11.0627 12.3054C11.2832 12.444 11.4748 12.6244 11.6263 12.8356C11.99 12.3374 12.394 11.9316 12.8068 11.6053ZM12 15.4239V18.2426C12 18.7731 11.7893 19.2818 11.4142 19.6569L9.87867 21.1924C9.09762 21.9734 7.83129 21.9734 7.05024 21.1924L2.8076 16.9498C2.02655 16.1687 2.02655 14.9024 2.8076 14.1213L4.34314 12.5858C4.71821 12.2107 5.22691 12 5.75735 12L8.27161 12L8.26712 11.9835C11.0437 11.2263 11.8733 9.17751 11.9617 8.38165L12 8.3859L12 5.75736C12 5.22693 12.2107 4.71822 12.5858 4.34315L14.1213 2.80762C14.9024 2.02657 16.1687 2.02657 16.9497 2.80762L21.1924 7.05026C21.9734 7.8313 21.9734 9.09763 21.1924 9.87868L19.6568 11.4142C19.2818 11.7893 18.7731 12 18.2426 12L15.2867 12C14.4022 12.2068 12.728 13.0738 12 15.4239ZM10.5 15.2083C10.4956 15.2241 10.4912 15.2399 10.4869 15.2558L10.5 15.2594V18.2426C10.5 18.3753 10.4473 18.5024 10.3535 18.5962L8.81801 20.1317C8.62275 20.327 8.30616 20.327 8.1109 20.1317L3.86826 15.8891C3.673 15.6938 3.673 15.3772 3.86826 15.182L5.4038 13.6464C5.49756 13.5527 5.62474 13.5 5.75735 13.5L9.99999 13.5C10.2761 13.5 10.5 13.7239 10.5 14L10.5 15.2083Z" />
</svg>
