<svg class="iconigniter" width="24" height="24" viewBox="0 0 24 24" fill="currentColor"  xmlns="http://www.w3.org/2000/svg">
<path fill-rule="evenodd" clip-rule="evenodd" d="M18.5962 13.6465L20.1317 15.182C20.327 15.3772 20.327 15.6938 20.1317 15.8891L15.8891 20.1317C15.6938 20.327 15.3772 20.327 15.182 20.1317L13.6464 18.5962C13.5527 18.5024 13.5 18.3753 13.5 18.2426V15.3742L13.5349 15.3703C13.5267 15.2959 13.5151 15.2175 13.5 15.1355V14C13.5 13.7239 13.7239 13.5 14 13.5L18.2426 13.5C18.3752 13.5 18.5024 13.5527 18.5962 13.6465ZM12.3947 12.8068C12.5354 12.618 12.7085 12.4547 12.906 12.3255C12.482 11.9928 12.0669 11.5764 11.6946 11.0627C11.556 11.2832 11.3756 11.4748 11.1644 11.6263C11.6626 11.99 12.0684 12.394 12.3947 12.8068ZM8.57613 12H5.75736C5.22692 12 4.71821 11.7893 4.34314 11.4142L2.80761 9.87868C2.02656 9.09764 2.02656 7.83131 2.80761 7.05026L7.05025 2.80762C7.8313 2.02657 9.09763 2.02657 9.87868 2.80762L11.4142 4.34315C11.7893 4.71822 12 5.22693 12 5.75736L12 8.27162L12.0165 8.26713C12.7737 11.0437 14.8225 11.8733 15.6184 11.9617L15.6141 12L18.2426 12C18.7731 12 19.2818 12.2107 19.6569 12.5858L21.1924 14.1213C21.9734 14.9024 21.9734 16.1687 21.1924 16.9498L16.9497 21.1924C16.1687 21.9734 14.9024 21.9734 14.1213 21.1924L12.5858 19.6569C12.2107 19.2818 12 18.7731 12 18.2426L12 15.2867C11.7932 14.4022 10.9262 12.728 8.57613 12ZM8.79168 10.5C8.7759 10.4956 8.76008 10.4912 8.74421 10.4869L8.74064 10.5H5.75736C5.62475 10.5 5.49757 10.4473 5.4038 10.3536L3.86827 8.81802C3.67301 8.62276 3.67301 8.30618 3.86827 8.11092L8.11091 3.86828C8.30617 3.67301 8.62275 3.67301 8.81802 3.86828L10.3536 5.40381C10.4473 5.49758 10.5 5.62476 10.5 5.75736L10.5 10C10.5 10.2761 10.2761 10.5 10 10.5L8.79168 10.5Z" />
</svg>
