<svg class="iconigniter" width="24" height="24" viewBox="0 0 24 24" fill="currentColor"  xmlns="http://www.w3.org/2000/svg">
<path fill-rule="evenodd" clip-rule="evenodd" d="M17.8284 8.50001L20 8.50001C20.2761 8.50001 20.5 8.72387 20.5 9.00001L20.5 15C20.5 15.2761 20.2761 15.5 20 15.5L17.8284 15.5C17.6958 15.5 17.5686 15.4473 17.4749 15.3536L15.4466 13.3253L15.4685 13.2978C15.4101 13.2511 15.3464 13.2038 15.2778 13.1564L14.4749 12.3536C14.2796 12.1583 14.2796 11.8417 14.4749 11.6465L17.4749 8.64645C17.5686 8.55269 17.6958 8.50001 17.8284 8.50001ZM12.8496 12.2914C12.8155 12.0584 12.8226 11.8205 12.8708 11.5896C12.3357 11.654 11.7478 11.6532 11.1213 11.5531C11.1792 11.8071 11.1871 12.0702 11.1449 12.3266C11.7543 12.2315 12.327 12.2303 12.8496 12.2914ZM9.57896 14.421L7.58579 16.4142C7.21071 16.7893 6.702 17 6.17157 17L4 17C2.89543 17 2 16.1046 2 15L2 9.00001C2 7.89544 2.89543 7.00001 4 7.00001L6.17157 7.00001C6.70201 7.00001 7.21071 7.21072 7.58579 7.58579L9.36364 9.36364L9.3721 9.34882C11.8709 10.7767 13.9062 9.91459 14.5315 9.41436L14.5556 9.44445L16.4142 7.58579C16.7893 7.21072 17.298 7.00001 17.8284 7.00001L20 7.00001C21.1046 7.00001 22 7.89544 22 9.00001L22 15C22 16.1046 21.1046 17 20 17L17.8284 17C17.298 17 16.7893 16.7893 16.4142 16.4142L14.3241 14.3241C13.5524 13.8448 11.7555 13.2741 9.57896 14.421ZM8.67072 13.208C8.65645 13.216 8.64218 13.2241 8.6279 13.2323L8.63463 13.2441L6.52513 15.3536C6.43136 15.4473 6.30418 15.5 6.17157 15.5L4 15.5C3.72386 15.5 3.5 15.2761 3.5 15L3.5 9.00001C3.5 8.72386 3.72386 8.50001 4 8.50001L6.17157 8.50001C6.30418 8.50001 6.43136 8.55269 6.52513 8.64645L9.52513 11.6465C9.72039 11.8417 9.72039 12.1583 9.52513 12.3536L8.67072 13.208Z" />
</svg>
