<svg class="iconigniter" width="24" height="24" viewBox="0 0 24 24" fill="currentColor"  xmlns="http://www.w3.org/2000/svg">
<path fill-rule="evenodd" clip-rule="evenodd" d="M15.5 19.451L15.5 17.8284C15.5 17.6958 15.4473 17.5686 15.3536 17.4749L12.3536 14.4749C12.1583 14.2796 11.8417 14.2796 11.6464 14.4749L10.8436 15.2778C10.7962 15.3464 10.749 15.4101 10.7022 15.4685L10.6748 15.4466L8.64645 17.4749C8.55268 17.5686 8.5 17.6958 8.5 17.8284L8.5 19.451C9.93637 17.5163 14.0636 17.5163 15.5 19.451ZM7.58579 16.4142L9.67595 14.3241C10.1552 13.5524 10.7259 11.7555 9.57896 9.57896L7.58579 7.58579C7.21071 7.21071 7 6.702 7 6.17157L7 4C7 2.89543 7.89543 2 9 2L15 2C16.1046 2 17 2.89543 17 4L17 6.17157C17 6.70201 16.7893 7.21071 16.4142 7.58579L14.6364 9.36364L14.6512 9.3721C13.2233 11.8709 14.0854 13.9062 14.5857 14.5315L14.5556 14.5556L16.4142 16.4142C16.7893 16.7893 17 17.298 17 17.8284L17 20C17 21.1046 16.1046 22 15 22L9 22C7.89543 22 7 21.1046 7 20L7 17.8284C7 17.298 7.21071 16.7893 7.58579 16.4142ZM12.4105 12.8708C12.1795 12.8226 11.9416 12.8155 11.7086 12.8496C11.7698 12.327 11.7685 11.7543 11.6734 11.1449C11.9298 11.1871 12.1929 11.1792 12.4469 11.1213C12.3468 11.7478 12.346 12.3357 12.4105 12.8708ZM10.9429 8.82161L10.792 8.67072L10.7677 8.62789L10.7559 8.63463L8.64645 6.52513C8.55268 6.43136 8.5 6.30418 8.5 6.17157L8.5 4C8.5 3.72386 8.72386 3.5 9 3.5L15 3.5C15.2761 3.5 15.5 3.72386 15.5 4L15.5 6.17157C15.5 6.30418 15.4473 6.43136 15.3536 6.52513L13.0571 8.82161C12.4194 8.57376 11.5806 8.57376 10.9429 8.82161Z" />
</svg>
