<svg class="iconigniter" width="24" height="24" viewBox="0 0 24 24" fill="currentColor"  xmlns="http://www.w3.org/2000/svg">
<path fill-rule="evenodd" clip-rule="evenodd" d="M8.5 6.17157V4C8.5 3.72386 8.72386 3.5 9 3.5L15 3.5C15.2761 3.5 15.5 3.72386 15.5 4V6.17157C15.5 6.29585 15.4537 6.41536 15.3707 6.50707C12.7865 4.71017 10.1317 5.55516 8.64144 6.52005C8.55081 6.42679 8.5 6.3018 8.5 6.17157ZM7 6.17157L7 4C7 2.89543 7.89543 2 9 2L15 2C16.1046 2 17 2.89543 17 4V6.17157C17 6.70201 16.7893 7.21071 16.4142 7.58579L14.3241 9.67595C13.8448 10.4476 13.2741 12.2445 14.421 14.421L16.4142 16.4142C16.7893 16.7893 17 17.298 17 17.8284V20C17 21.1046 16.1046 22 15 22H9C7.89543 22 7 21.1046 7 20V17.8284C7 17.298 7.21071 16.7893 7.58579 16.4142L9.36364 14.6364L9.34882 14.6279C10.7767 12.1291 9.91458 10.0938 9.41435 9.46852L9.44444 9.44444L7.58579 7.58579C7.21071 7.21071 7 6.70201 7 6.17157ZM13.208 15.3293C13.216 15.3435 13.2241 15.3578 13.2323 15.3721L13.2441 15.3654L15.3536 17.4749C15.4473 17.5686 15.5 17.6958 15.5 17.8284V20C15.5 20.1824 15.4023 20.342 15.2564 20.4293C15.0055 20.2625 14.754 20.1201 14.5032 20C12.699 19.1359 10.9276 19.4219 9.60933 20C9.30158 20.135 9.01852 20.2858 8.76549 20.4417C8.60754 20.3577 8.5 20.1914 8.5 20L8.5 17.8284C8.5 17.6958 8.55268 17.5686 8.64645 17.4749L11.6464 14.4749C11.8417 14.2796 12.1583 14.2796 12.3536 14.4749L13.208 15.3293ZM12.3266 12.8551C12.2315 12.2457 12.2302 11.673 12.2914 11.1504C12.0584 11.1845 11.8205 11.1774 11.5895 11.1292C11.654 11.6643 11.6532 12.2522 11.5531 12.8787C11.8071 12.8208 12.0702 12.8129 12.3266 12.8551Z" />
</svg>
