<svg class="iconigniter" width="24" height="24" viewBox="0 0 24 24" fill="currentColor"  xmlns="http://www.w3.org/2000/svg">
<path fill-rule="evenodd" clip-rule="evenodd" d="M20.5 12C20.5 13.0272 20.3178 14.0118 19.984 14.9233L17.7036 12.6429C18.7671 11.0377 19.4089 9.43863 19.5481 8.08767C20.1563 9.25873 20.5 10.5892 20.5 12ZM16.8083 13.869L19.2986 16.3592C18.5769 17.5649 17.5649 18.5769 16.3592 19.2986L13.869 16.8083C14.3946 16.388 14.9142 15.9239 15.4191 15.4191C15.9239 14.9142 16.388 14.3946 16.8083 13.869ZM11.5583 16.6189C10.7396 17.1363 9.94242 17.5208 9.21196 17.7651C7.55754 18.3183 6.71722 18.0309 6.41144 17.7251C6.10566 17.4194 5.81829 16.579 6.37151 14.9246C6.61577 14.1942 7.00026 13.397 7.51767 12.5783L11.5583 16.6189ZM12.8012 15.7405L8.39607 11.3354C8.80585 10.8121 9.26717 10.2892 9.77817 9.77817C10.2892 9.26717 10.8121 8.80585 11.3354 8.39607L15.7405 12.8012C15.3307 13.3245 14.8694 13.8474 14.3584 14.3584C13.8474 14.8694 13.3245 15.3307 12.8012 15.7405ZM7.32828 10.2676C7.74863 9.74195 8.21268 9.22235 8.71751 8.71751C9.22235 8.21268 9.74195 7.74863 10.2676 7.32828L7.64077 4.70143C6.43507 5.42311 5.42311 6.43507 4.70143 7.64077L7.32828 10.2676ZM4.01604 9.0767C3.6822 9.98821 3.5 10.9728 3.5 12C3.5 13.5063 3.89184 14.9212 4.57915 16.1481C4.6964 14.7766 5.34337 13.1383 6.43303 11.4937L4.01604 9.0767ZM12.6429 17.7036L14.9233 19.984C14.0118 20.3178 13.0272 20.5 12 20.5C10.5892 20.5 9.25873 20.1563 8.08767 19.5481C9.43863 19.4089 11.0377 18.7671 12.6429 17.7036ZM17.7651 9.21196C17.5208 9.94242 17.1363 10.7396 16.6189 11.5583L12.5783 7.51767C13.397 7.00026 14.1942 6.61577 14.9246 6.37151C16.579 5.81829 17.4194 6.10566 17.7251 6.41144C18.0309 6.71722 18.3183 7.55754 17.7651 9.21196ZM16.1481 4.57915C14.7766 4.6964 13.1383 5.34338 11.4937 6.43303L9.0767 4.01604C9.98821 3.6822 10.9728 3.5 12 3.5C13.5063 3.5 14.9212 3.89184 16.1481 4.57915ZM22 12C22 17.5228 17.5228 22 12 22C6.47715 22 2 17.5228 2 12C2 6.47715 6.47715 2 12 2C17.5228 2 22 6.47715 22 12Z" />
</svg>
