<svg class="iconigniter" width="24" height="24" viewBox="0 0 24 24" fill="currentColor"  xmlns="http://www.w3.org/2000/svg">
<path fill-rule="evenodd" clip-rule="evenodd" d="M17.5 9C17.5 10.4726 16.9233 11.8072 15.9803 12.7957C15.5967 13.1978 15.2325 13.7263 15.045 14.3823L14.0828 17.75H9.91717L8.95497 14.3823C8.76755 13.7263 8.40333 13.1978 8.01969 12.7957C7.07672 11.8072 6.5 10.4726 6.5 9C6.5 5.96243 8.96243 3.5 12 3.5C15.0376 3.5 17.5 5.96243 17.5 9ZM11.0246 19.25C11.3076 19.5916 11.4831 20.0256 11.4988 20.5H12.5012C12.5169 20.0256 12.6924 19.5916 12.9754 19.25H11.0246ZM19 9C19 10.8733 18.2641 12.5748 17.0657 13.8311C16.8034 14.106 16.5917 14.429 16.4873 14.7944L15.1181 19.5866C15.0482 19.8313 14.8245 20 14.57 20C14.2552 20 14 20.2552 14 20.57V21C14 21.5523 13.5523 22 13 22H11C10.4477 22 10 21.5523 10 21V20.57C10 20.2552 9.74479 20 9.42997 20C9.17547 20 8.9518 19.8313 8.88188 19.5866L7.51268 14.7944C7.40829 14.429 7.19663 14.106 6.93435 13.8311C5.73588 12.5748 5 10.8733 5 9C5 5.13401 8.13401 2 12 2C15.866 2 19 5.13401 19 9Z" />
</svg>
