<svg class="iconigniter" width="24" height="24" viewBox="0 0 24 24" fill="currentColor"  xmlns="http://www.w3.org/2000/svg">
<path fill-rule="evenodd" clip-rule="evenodd" d="M12.0852 1.9996C11.2114 1.9996 10.0051 2.1754 9.00038 2.92314C7.95511 3.70104 7.25 5.00582 7.25 7H8.75C8.75 5.39418 9.29489 4.57376 9.89592 4.12647C10.5375 3.649 11.3738 3.4996 12.0852 3.4996C13.2547 3.4996 13.9873 3.979 14.4884 4.70078C15.0192 5.46554 15.3101 6.53969 15.4371 7.70596C15.4844 8.14066 15.5078 8.57723 15.5146 9H6C4.89543 9 4 9.89543 4 11V19C4 20.1046 4.89543 21 6 21H18C19.1046 21 20 20.1046 20 19V11C20 9.89543 19.1046 9 18 9H17.0147C17.0079 8.52846 16.982 8.03702 16.9283 7.54364C16.7899 6.27232 16.4588 4.90887 15.7206 3.84543C14.9525 2.739 13.7691 1.9996 12.0852 1.9996ZM18 10.5H6C5.72386 10.5 5.5 10.7239 5.5 11V19C5.5 19.2761 5.72386 19.5 6 19.5H18C18.2761 19.5 18.5 19.2761 18.5 19V11C18.5 10.7239 18.2761 10.5 18 10.5ZM13 14C13 14.3701 12.7989 14.6933 12.5001 14.8662L13.732 17H10.2679L11.4999 14.8662C11.2011 14.6933 11 14.3701 11 14C11 13.4477 11.4477 13 12 13C12.5523 13 13 13.4477 13 14Z" />
</svg>
