<svg class="iconigniter" width="24" height="24" viewBox="0 0 24 24" fill="currentColor"  xmlns="http://www.w3.org/2000/svg">
<path fill-rule="evenodd" clip-rule="evenodd" d="M16.8586 6.76091C16.9796 7.54714 17.006 8.32611 16.9908 9H18C19.1046 9 20 9.89543 20 11V19C20 20.1046 19.1046 21 18 21H6C4.89543 21 4 20.1046 4 19V11C4 9.89543 4.89543 9 6 9H7.04045C7.02529 8.32611 7.05167 7.54714 7.17268 6.76091C7.34145 5.66439 7.70498 4.48192 8.46562 3.56134C9.25307 2.60832 10.4147 2 12.0156 2C13.6166 2 14.7782 2.60832 15.5656 3.56134C16.3263 4.48192 16.6898 5.66439 16.8586 6.76091ZM15.4904 9H8.54088C8.52555 8.38402 8.54846 7.68277 8.65522 6.98909C8.8039 6.02311 9.10448 5.14308 9.62197 4.51678C10.1126 3.92293 10.8432 3.5 12.0156 3.5C13.1881 3.5 13.9186 3.92293 14.4093 4.51678C14.9268 5.14308 15.2274 6.02311 15.376 6.98909C15.4828 7.68277 15.5057 8.38402 15.4904 9ZM18 10.5H6C5.72386 10.5 5.5 10.7239 5.5 11V19C5.5 19.2761 5.72386 19.5 6 19.5H18C18.2761 19.5 18.5 19.2761 18.5 19V11C18.5 10.7239 18.2761 10.5 18 10.5ZM13 14C13 14.3701 12.7989 14.6932 12.5001 14.8661L13.7321 17H10.2679L11.4999 14.8661C11.2011 14.6932 11 14.3701 11 14C11 13.4477 11.4477 13 12 13C12.5523 13 13 13.4477 13 14Z" />
</svg>
