<svg class="iconigniter" width="24" height="24" viewBox="0 0 24 24" fill="currentColor"  xmlns="http://www.w3.org/2000/svg">
<path fill-rule="evenodd" clip-rule="evenodd" d="M19.4394 5.5H4.56063L12 12.9394L19.4394 5.5ZM3.5 6.56069V18C3.5 18.2761 3.72386 18.5 4 18.5H10V20H4C2.89543 20 2 19.1046 2 18V6C2 4.89543 2.89543 4 4 4H20C21.1046 4 22 4.89543 22 6V13.0307H20.5V6.5607L12 15.0607L3.5 6.56069ZM17.75 16.8107L17.75 22.0001H16.25L16.25 16.8107L14.5303 18.5304L13.4697 17.4697L17 13.9394L20.5303 17.4697L19.4697 18.5304L17.75 16.8107Z" />
</svg>
