<svg class="iconigniter" width="24" height="24" viewBox="0 0 24 24" fill="currentColor"  xmlns="http://www.w3.org/2000/svg">
<path fill-rule="evenodd" clip-rule="evenodd" d="M19.4394 5.5H4.56063L12 12.9394L19.4394 5.5ZM3.5 6.56069V18C3.5 18.2761 3.72386 18.5 4 18.5H10V20H4C2.89543 20 2 19.1046 2 18V6C2 4.89543 2.89543 4 4 4H20C21.1046 4 22 4.89543 22 6V13.0307H20.5V6.5607L12 15.0607L3.5 6.56069ZM22.5303 15.7804L16.5 21.8107L12.4697 17.7804L13.5303 16.7197L16.5 19.6894L21.4697 14.7197L22.5303 15.7804Z" />
</svg>
