<svg class="iconigniter" width="24" height="24" viewBox="0 0 24 24" fill="currentColor"  xmlns="http://www.w3.org/2000/svg">
<path fill-rule="evenodd" clip-rule="evenodd" d="M19.4394 5.5H4.56063L12 12.9394L19.4394 5.5ZM3.5 6.56069V18C3.5 18.2761 3.72386 18.5 4 18.5H10V20H4C2.89543 20 2 19.1046 2 18V6C2 4.89543 2.89543 4 4 4H20C21.1046 4 22 4.89543 22 6V13.0307H20.5V6.56071L12.5303 14.5304L12 15.0607L11.4697 14.5304L3.5 6.56069ZM15.8107 17.7501H21V19.2501H15.8107L17.5303 20.9697L16.4697 22.0304L13.4697 19.0304L12.9393 18.5001L13.4697 17.9697L16.4697 14.9697L17.5303 16.0304L15.8107 17.7501Z" />
</svg>
