<svg class="iconigniter" width="24" height="24" viewBox="0 0 24 24" fill="currentColor"  xmlns="http://www.w3.org/2000/svg">
<path fill-rule="evenodd" clip-rule="evenodd" d="M12 12.9394L4.56063 5.5H19.4394L12 12.9394ZM20.5 11.5V6.5607L12 15.0607L3.5 6.56069V18C3.5 18.2761 3.72386 18.5 4 18.5H10V20H4C2.89543 20 2 19.1046 2 18V6C2 4.89543 2.89543 4 4 4H20C21.1046 4 22 4.89543 22 6V11.5H20.5ZM20.7071 16.8285L16.4321 21.1035L15.5482 21.2803L15.7249 20.3964L20 16.1214L20.7071 16.8285ZM22.8284 16.8285L17.1716 22.4853L13.636 23.1924L14.3431 19.6569L20 14.0001L22.8284 16.8285Z" />
</svg>
