<svg class="iconigniter" width="24" height="24" viewBox="0 0 24 24" fill="currentColor"  xmlns="http://www.w3.org/2000/svg">
<path fill-rule="evenodd" clip-rule="evenodd" d="M19.4178 5.44342H4.58216L12 12.7563L19.4178 5.44342ZM3.5 6.46788V17.7171C3.5 17.9932 3.72386 18.2171 4 18.2171H10V19.7171H4C2.89543 19.7171 2 18.8216 2 17.7171V5.94342C2 4.83885 2.89543 3.94342 4 3.94342H20C21.1046 3.94342 22 4.83885 22 5.94342V12.8464H20.5V6.46788L12 14.8476L3.5 6.46788ZM16.5887 18.4232L14.2943 20.6851L15.3625 21.7382L17.6569 19.4763L19.9512 21.7381L21.0194 20.6851L18.7251 18.4232L21.0194 16.1613L19.9512 15.1083L17.6569 17.3701L15.3625 15.1082L14.2943 16.1613L16.5887 18.4232Z" />
</svg>
