<svg class="iconigniter" width="24" height="24" viewBox="0 0 24 24" fill="currentColor"  xmlns="http://www.w3.org/2000/svg">
<path fill-rule="evenodd" clip-rule="evenodd" d="M3.13537 19.804L1.46967 21.4697L2.53033 22.5303L22.5303 2.53033L21.4697 1.46967L18.9393 4H4C2.89543 4 2 4.89543 2 6V18C2 18.7949 2.46371 19.4815 3.13537 19.804ZM4.43933 18.5L9.93931 13L3.5 6.56069V18C3.5 18.2761 3.72386 18.5 4 18.5H4.43933ZM17.4393 5.5L11 11.9394L4.56063 5.5H17.4393ZM20 20H7.12315L8.62315 18.5H20C20.2761 18.5 20.5 18.2761 20.5 18V6.62315L21.8599 5.26323C21.9503 5.49124 22 5.73982 22 6V18C22 19.1046 21.1046 20 20 20Z" />
</svg>
