<svg class="iconigniter" width="24" height="24" viewBox="0 0 24 24" fill="currentColor"  xmlns="http://www.w3.org/2000/svg">
<path fill-rule="evenodd" clip-rule="evenodd" d="M18.5 10C18.5 10.71 18.1569 11.7349 17.4429 13.0031C16.7516 14.231 15.8101 15.5185 14.8384 16.7078C13.8714 17.8913 12.9003 18.946 12.1689 19.7065C12.111 19.7667 12.0547 19.825 12 19.8813C11.9453 19.825 11.889 19.7667 11.8311 19.7065C11.0997 18.946 10.1286 17.8913 9.16156 16.7078C8.18986 15.5185 7.24841 14.231 6.55707 13.0031C5.8431 11.7349 5.5 10.71 5.5 10C5.5 6.41015 8.41015 3.5 12 3.5C15.5899 3.5 18.5 6.41015 18.5 10ZM20 10C20 14.4183 12 22 12 22C12 22 4 14.4183 4 10C4 5.58172 7.58172 2 12 2C16.4183 2 20 5.58172 20 10ZM15.5 10C15.5 11.933 13.933 13.5 12 13.5C10.067 13.5 8.5 11.933 8.5 10C8.5 8.067 10.067 6.5 12 6.5C13.933 6.5 15.5 8.067 15.5 10ZM17 10C17 12.7614 14.7614 15 12 15C9.23858 15 7 12.7614 7 10C7 7.23858 9.23858 5 12 5C14.7614 5 17 7.23858 17 10Z" />
</svg>
