<svg class="iconigniter" width="24" height="24" viewBox="0 0 24 24" fill="currentcolor" xmlns="http://www.w3.org/2000/svg">
<path fill-rule="evenodd" clip-rule="evenodd" d="M8.01562 4.5H16.0156C16.2918 4.5 16.5156 4.72386 16.5156 5V19C16.5156 19.2761 16.2918 19.5 16.0156 19.5H8.01562C7.73947 19.5 7.51562 19.2761 7.51562 19V5C7.51562 4.72386 7.73947 4.5 8.01562 4.5ZM6.01562 5C6.01562 3.89543 6.91105 3 8.01562 3H16.0156C17.1202 3 18.0156 3.89543 18.0156 5V19C18.0156 20.1046 17.1202 21 16.0156 21H8.01562C6.91105 21 6.01562 20.1046 6.01562 19V5ZM12.0156 18C12.5679 18 13.0156 17.5523 13.0156 17C13.0156 16.4477 12.5679 16 12.0156 16C11.4633 16 11.0156 16.4477 11.0156 17C11.0156 17.5523 11.4633 18 12.0156 18ZM2.54595 5.46967L4.54595 7.46967L5.07628 8L4.54595 8.53033L3.07628 10L4.54595 11.4697L5.07628 12L4.54595 12.5303L3.07628 14L4.54595 15.4697L5.07628 16L4.54595 16.5303L2.54595 18.5303L1.48529 17.4697L2.95496 16L1.48529 14.5303L0.954956 14L1.48529 13.4697L2.95496 12L1.48529 10.5303L0.954956 10L1.48529 9.46967L2.95496 8L1.48529 6.53033L2.54595 5.46967ZM19.4853 16.5303L21.4853 18.5303L22.5459 17.4697L21.0763 16L22.5459 14.5303L23.0763 14L22.5459 13.4697L21.0763 12L22.5459 10.5303L23.0763 10L22.5459 9.46967L21.0763 8L22.5459 6.53033L21.4853 5.46967L19.4853 7.46967L18.955 8L19.4853 8.53033L20.955 10L19.4853 11.4697L18.955 12L19.4853 12.5303L20.955 14L19.4853 15.4697L18.955 16L19.4853 16.5303Z" />
</svg>
