<svg class="iconigniter" width="24" height="24" viewBox="0 0 24 24" fill="currentcolor" xmlns="http://www.w3.org/2000/svg">
<path fill-rule="evenodd" clip-rule="evenodd" d="M19.0156 7.5C19.2918 7.5 19.5156 7.72386 19.5156 8V16C19.5156 16.2761 19.2918 16.5 19.0156 16.5H5.01562C4.73948 16.5 4.51562 16.2761 4.51562 16L4.51563 8C4.51563 7.72386 4.73948 7.5 5.01563 7.5L19.0156 7.5ZM19.0156 6C20.1202 6 21.0156 6.89543 21.0156 8V16C21.0156 17.1046 20.1202 18 19.0156 18H5.01562C3.91105 18 3.01562 17.1046 3.01562 16L3.01563 8C3.01563 6.89543 3.91106 6 5.01563 6L19.0156 6ZM6.01563 12C6.01563 12.5523 6.46334 13 7.01563 13C7.56791 13 8.01563 12.5523 8.01563 12C8.01563 11.4477 7.56791 11 7.01563 11C6.46334 11 6.01563 11.4477 6.01563 12Z" />
</svg>
