<svg class="iconigniter" width="24" height="24" viewBox="0 0 24 24" fill="currentcolor" xmlns="http://www.w3.org/2000/svg">
<path fill-rule="evenodd" clip-rule="evenodd" d="M8.01562 4.5H16.0156C16.2918 4.5 16.5156 4.72386 16.5156 5V19C16.5156 19.2761 16.2918 19.5 16.0156 19.5H8.01562C7.73948 19.5 7.51562 19.2761 7.51562 19V5C7.51562 4.72386 7.73948 4.5 8.01562 4.5ZM6.01562 5C6.01562 3.89543 6.91106 3 8.01562 3H16.0156C17.1202 3 18.0156 3.89543 18.0156 5V19C18.0156 20.1046 17.1202 21 16.0156 21H8.01562C6.91106 21 6.01562 20.1046 6.01562 19V5ZM12.0156 18C12.5679 18 13.0156 17.5523 13.0156 17C13.0156 16.4477 12.5679 16 12.0156 16C11.4633 16 11.0156 16.4477 11.0156 17C11.0156 17.5523 11.4633 18 12.0156 18Z" />
</svg>
