<svg class="iconigniter" width="24" height="24" viewBox="0 0 24 24" fill="currentcolor" xmlns="http://www.w3.org/2000/svg">
<path fill-rule="evenodd" clip-rule="evenodd" d="M5 5.5H19C19.2761 5.5 19.5 5.72386 19.5 6V15C19.5 15.2761 19.2761 15.5 19 15.5H5C4.72386 15.5 4.5 15.2761 4.5 15V6C4.5 5.72386 4.72386 5.5 5 5.5ZM3 6C3 4.89543 3.89543 4 5 4H19C20.1046 4 21 4.89543 21 6V15C21 16.1046 20.1046 17 19 17H14.75V19.25H17V20.75H7V19.25H9.25V17H5C3.89543 17 3 16.1046 3 15V6ZM10.75 19.25H13.25V17H10.75V19.25Z" />
</svg>
