<svg class="iconigniter" width="24" height="24" viewBox="0 0 24 24" fill="currentcolor" xmlns="http://www.w3.org/2000/svg">
<path fill-rule="evenodd" clip-rule="evenodd" d="M5 5.5H19C19.2761 5.5 19.5 5.72386 19.5 6V12H21V6C21 4.89543 20.1046 4 19 4H5C3.89543 4 3 4.89543 3 6V15C3 16.1046 3.89543 17 5 17H9.25V19.25H7V20.75H12V19.25H10.75V17H12V15.5H5C4.72386 15.5 4.5 15.2761 4.5 15V6C4.5 5.72386 4.72386 5.5 5 5.5ZM14 17.25H19.1893L17.4697 15.5303L18.5303 14.4697L21.5303 17.4697L22.0607 18L21.5303 18.5303L18.5303 21.5303L17.4697 20.4697L19.1893 18.75H14V17.25Z" />
</svg>
