<svg class="iconigniter" width="24" height="24" viewBox="0 0 24 24" fill="currentColor"  xmlns="http://www.w3.org/2000/svg">
<path fill-rule="evenodd" clip-rule="evenodd" d="M16.9541 19.0892C16.9543 19.0892 16.9544 19.0891 16.9546 19.0891C16.9562 19.0903 16.9578 19.0916 16.9594 19.0928C16.9642 19.0961 16.969 19.0994 16.9738 19.1026L16.9732 19.1036C17.4465 19.4724 17.9578 19.7949 18.5 20.0644C17.295 20.6632 15.9368 20.9999 14.5 20.9999C9.52944 20.9999 5.5 16.9705 5.5 11.9999C5.5 7.02938 9.52944 2.99994 14.5 2.99994C15.9368 2.99994 17.295 3.33665 18.5 3.93546C18.0997 4.13441 17.7162 4.3623 17.3524 4.61639L17.3546 4.61961C17.2731 4.67519 17.1907 4.73319 17.1076 4.79354C17.0562 4.8321 17.0052 4.8712 16.9546 4.91082C16.9534 4.9104 16.9522 4.90998 16.9509 4.90956C15.2956 6.15808 13.4182 8.30225 12.7931 10.7353C12.4603 12.0306 12.4821 13.4031 13.0729 14.7925C13.6647 16.1844 14.853 17.6526 16.9541 19.0892ZM14.9731 19.4853C13.3524 18.1743 12.2929 16.7916 11.6925 15.3795C10.9567 13.6491 10.9362 11.9348 11.3403 10.362C11.9476 7.99807 13.5125 5.94563 15.0748 4.52164C14.8851 4.50726 14.6934 4.49994 14.5 4.49994C10.3579 4.49994 7 7.8578 7 11.9999C7 16.1421 10.3579 19.4999 14.5 19.4999C14.6589 19.4999 14.8166 19.495 14.9731 19.4853Z" />
</svg>
