<svg class="iconigniter" width="24" height="24" viewBox="0 0 24 24" fill="currentColor"  xmlns="http://www.w3.org/2000/svg">
<path fill-rule="evenodd" clip-rule="evenodd" d="M7.59708 18.3318L6.13955 18.3751C5.85186 18.3837 5.61636 18.1482 5.62491 17.8605L5.66824 16.4029C5.67202 16.2755 5.72433 16.1544 5.81446 16.0642L14.1044 7.77428L16.0626 10.0588L7.93578 18.1856C7.84565 18.2757 7.72449 18.328 7.59708 18.3318ZM17.1264 8.99498L18.7175 7.40382C18.9128 7.20855 18.9128 6.89197 18.7175 6.69671L17.3033 5.28249C17.1081 5.08723 16.7915 5.08723 16.5962 5.28249L15.1682 6.71049L17.1264 8.99498ZM7.64165 19.8311L6.18411 19.8745C5.03334 19.9087 4.09137 18.9667 4.12557 17.8159L4.1689 16.3584C4.18404 15.8487 4.39327 15.3641 4.7538 15.0036L15.5356 4.22183C16.3166 3.44079 17.5829 3.44079 18.364 4.22183L19.7782 5.63605C20.5592 6.4171 20.5592 7.68343 19.7782 8.46448L8.99644 19.2462C8.63591 19.6068 8.15129 19.816 7.64165 19.8311Z" />
</svg>
