<svg class="iconigniter" width="24" height="24" viewBox="0 0 24 24" fill="currentColor"  xmlns="http://www.w3.org/2000/svg">
<path fill-rule="evenodd" clip-rule="evenodd" d="M7.97544 1.16105C8.74515 0.901866 9.3924 1.3613 9.67693 1.88359L11.2709 4.80942C11.693 5.5843 11.4722 6.55224 10.7558 7.06741L9.18287 8.1985C9.10114 8.25727 9.07951 8.34027 9.09063 8.39653C9.83618 12.17 12.3698 13.8295 14.113 14.2867C14.1245 14.2897 14.1405 14.2909 14.1654 14.281C14.1929 14.2702 14.2277 14.2465 14.2576 14.2065L15.4471 12.6146C16.013 11.8573 17.078 11.6864 17.8525 12.2285L20.6174 14.1639C21.1473 14.5348 21.4676 15.2026 21.3112 15.8991C21.0938 16.867 20.7063 17.8417 20.2208 18.5841C19.9785 18.9545 19.6926 19.2968 19.3643 19.5476C19.0369 19.7977 18.6124 19.9963 18.1252 19.9588C12.4065 19.5189 8.74813 17.1373 6.51754 14.2409C4.30682 11.3704 3.53814 8.04796 3.47581 5.74188L3.47547 5.72944L3.47555 5.717C3.48353 4.42097 4.40059 3.37297 5.28101 2.66511C6.19212 1.93257 7.26568 1.40006 7.97544 1.16105ZM8.36633 2.61332C7.80766 2.81544 6.94661 3.25065 6.2209 3.83412C5.43032 4.46976 4.98478 5.12968 4.97564 5.7151C5.03389 7.76912 5.72968 10.7595 7.70596 13.3257C9.66679 15.8718 12.9281 18.0546 18.2402 18.4633L18.2403 18.4633C18.2414 18.4633 18.256 18.4646 18.2897 18.4522C18.3261 18.4389 18.3814 18.4109 18.4538 18.3556C18.6027 18.2419 18.7799 18.0468 18.9654 17.7631C19.3354 17.1974 19.6621 16.3967 19.8476 15.5705C19.8564 15.5315 19.8449 15.4542 19.7572 15.3928L16.9923 13.4574C16.8817 13.3799 16.7295 13.4043 16.6487 13.5125L15.4592 15.1044C15.0872 15.6021 14.4271 15.9198 13.7325 15.7376C11.5072 15.154 8.4901 13.0958 7.61908 8.68728C7.48585 8.01298 7.78428 7.35666 8.30713 6.98068L9.88007 5.84958C9.98241 5.77599 10.014 5.63771 9.95365 5.52702L8.36633 2.61332Z" />
</svg>
