<svg class="iconigniter" width="24" height="24" viewBox="0 0 24 24" fill="currentColor"  xmlns="http://www.w3.org/2000/svg">
<path fill-rule="evenodd" clip-rule="evenodd" d="M19.7866 13.3334L18.4067 13.0971L18.3082 13.0802L18.3077 13.0827C18.0531 14.5661 17.2838 15.9123 16.1351 16.8848C14.9856 17.8578 13.5299 18.3943 12.0239 18.4C10.518 18.4056 9.05827 17.88 7.90159 16.9156C6.74491 15.9512 5.96536 14.6098 5.70007 13.1274C5.43478 11.645 5.70075 10.1165 6.45119 8.81082C7.20163 7.50515 8.38846 6.50593 9.80291 5.98894C11.2174 5.47195 12.7688 5.47031 14.1844 5.98431C15.394 6.42353 16.4381 7.21523 17.1863 8.25H14V9.75H19H19.75V9V4H18.25V7.00623C18.1863 6.92649 18.1211 6.84804 18.0545 6.77093C17.1659 5.74208 16.0238 4.95004 14.7305 4.48039C12.961 3.83789 11.0217 3.83994 9.25364 4.48617C7.48558 5.13241 6.00204 6.38143 5.06399 8.01353C4.12594 9.64562 3.79348 11.5562 4.12509 13.4093C4.4567 15.2623 5.43114 16.939 6.87699 18.1445C8.32284 19.35 10.1475 20.007 12.0299 19.9999C13.9124 19.9929 15.7321 19.3222 17.1688 18.106C18.2191 17.2169 19.0156 16.078 19.4922 14.8048C19.6676 14.3362 19.7997 13.8494 19.8852 13.3503L19.7866 13.3334Z" />
</svg>
