<svg class="iconigniter" width="24" height="24" viewBox="0 0 24 24" fill="currentColor"  xmlns="http://www.w3.org/2000/svg">
<path fill-rule="evenodd" clip-rule="evenodd" d="M18.5 12C18.5 15.5899 15.5899 18.5 12 18.5C8.41015 18.5 5.5 15.5899 5.5 12C5.5 8.41015 8.41015 5.5 12 5.5C15.5899 5.5 18.5 8.41015 18.5 12ZM20 12C20 16.4183 16.4183 20 12 20C7.58172 20 4 16.4183 4 12C4 7.58172 7.58172 4 12 4C16.4183 4 20 7.58172 20 12ZM8.64124 14.2981L10.9393 12L8.64124 9.7019L9.7019 8.64124L12 10.9393L14.2981 8.64124L15.3588 9.7019L13.0607 12L15.3588 14.2981L14.2981 15.3588L12 13.0607L9.7019 15.3588L8.64124 14.2981Z" />
</svg>
