<svg class="iconigniter" width="24" height="24" viewBox="0 0 24 24" fill="currentColor"  xmlns="http://www.w3.org/2000/svg">
<path fill-rule="evenodd" clip-rule="evenodd" d="M10.4818 19.3102L9.52513 18.3536C10.892 16.9867 13.108 16.9867 14.4749 18.3536L13.5203 19.3081L14.4749 18.3536L14.6465 18.5251C14.9614 18.8401 15.5 18.617 15.5 18.1716V5C15.5 4.72386 15.2761 4.5 15 4.5H9C8.72386 4.5 8.5 4.72386 8.5 5V18.1716C8.5 18.617 9.03857 18.8401 9.35355 18.5251L9.52513 18.3536L10.4818 19.3102ZM7 5V18.1716C7 19.9534 9.15428 20.8457 10.4142 19.5858L10.5858 19.4142C11.3668 18.6332 12.6332 18.6332 13.4142 19.4142L13.5858 19.5858C14.8457 20.8457 17 19.9534 17 18.1716V5C17 3.89543 16.1046 3 15 3H9C7.89543 3 7 3.89543 7 5Z" />
</svg>
