<svg class="iconigniter" width="24" height="24" viewBox="0 0 24 24" fill="currentColor"  xmlns="http://www.w3.org/2000/svg">
<path fill-rule="evenodd" clip-rule="evenodd" d="M6.93928 16.0001L1.46967 21.4697L2.53033 22.5303L22.5303 2.53033L21.4697 1.46967L16 6.93934V6.27012C16 4.57445 14.0223 3.64813 12.7196 4.73367L9.35622 7.5365C8.99679 7.83602 8.54373 8.00005 8.07586 8.00005H4C2.89543 8.00005 2 8.89548 2 10.0001V14.0001C2 15.1046 2.89543 16.0001 4 16.0001H6.93928ZM8.42213 14.5172C8.30751 14.5058 8.19198 14.5001 8.07593 14.5001H4C3.72385 14.5001 3.5 14.2762 3.5 14.0001V10.0001C3.5 9.72391 3.72385 9.50005 4 9.50005H8.07586C8.89463 9.50005 9.6875 9.213 10.3165 8.68883L13.6799 5.88601C14.0056 5.61462 14.5 5.8462 14.5 6.27012V8.43934L8.42213 14.5172ZM12.7196 19.2664L10.0331 17.0276L11.0981 15.9626L13.6799 18.1141C14.0056 18.3854 14.5 18.1539 14.5 17.73V12.5607L16.7186 10.3421C16.9009 10.8609 17 11.4189 17 12C17 13.1258 16.6279 14.1647 16 15.0005V17.73C16 19.4256 14.0223 20.3519 12.7196 19.2664Z" />
</svg>
