<svg class="iconigniter" width="24" height="24" viewBox="0 0 24 24" fill="currentColor"  xmlns="http://www.w3.org/2000/svg">
<path fill-rule="evenodd" clip-rule="evenodd" d="M8.07594 14.5001H4C3.72386 14.5001 3.5 14.2762 3.5 14.0001V10.0001C3.5 9.72391 3.72386 9.50005 4 9.50005H8.07586C8.89464 9.50005 9.6875 9.213 10.3165 8.68883L13.6799 5.88601C14.0056 5.61462 14.5 5.8462 14.5 6.27012V12V17.73C14.5 18.1539 14.0056 18.3854 13.6799 18.1141L10.3166 15.3113C9.68758 14.7871 8.89472 14.5001 8.07594 14.5001ZM9.35631 16.4636C8.99688 16.1641 8.54381 16.0001 8.07594 16.0001H4C2.89543 16.0001 2 15.1046 2 14.0001V10.0001C2 8.89548 2.89543 8.00005 4 8.00005H8.07586C8.54373 8.00005 8.9968 7.83602 9.35623 7.5365L12.7196 4.73367C14.0223 3.64813 16 4.57445 16 6.27012V8.99951C16.6279 9.83527 17 10.8742 17 12C17 13.1258 16.6279 14.1647 16 15.0005V17.73C16 19.4256 14.0223 20.3519 12.7196 19.2664L9.35631 16.4636ZM18.3329 13.7089C18.6774 12.6337 18.6889 11.4794 18.3658 10.3976L19.7073 9.99698L19.708 9.99931C19.8527 10.4844 19.9436 10.9812 19.9807 11.4808C20.0099 11.8728 20.006 12.2666 19.969 12.658C19.9218 13.1576 19.8208 13.6532 19.6661 14.1361L18.3329 13.7089ZM20.178 7.42937C21.0935 8.86707 21.5561 10.5465 21.506 12.2502C21.4559 13.9539 20.8953 15.6033 19.897 16.9847L21.1048 17.8576L21.1068 17.8549C21.4014 17.447 21.6635 17.0193 21.8918 16.5757C22.5717 15.2543 22.9516 13.792 22.9957 12.294C23.0397 10.7961 22.7465 9.31399 22.1454 7.95495C21.9431 7.49765 21.706 7.05428 21.4351 6.62891L20.178 7.42937Z" />
</svg>
