<svg class="iconigniter" width="25" height="24" viewBox="0 0 25 24"  xmlns="http://www.w3.org/2000/svg">
<path fill-rule="evenodd" clip-rule="evenodd" d="M13.0489 2.2415C12.6149 2.19705 12.1545 2.42557 11.9915 2.92705L10.4729 7.60081C10.3391 8.01284 9.95511 8.2918 9.52188 8.2918H4.6076C3.63888 8.2918 3.2361 9.53141 4.01981 10.1008L7.99555 12.9894C8.34604 13.244 8.4927 13.6954 8.35882 14.1074L6.84023 18.7812C6.54087 19.7025 7.59536 20.4686 8.37907 19.8992L12.3548 17.0106C12.5602 16.8614 12.8082 16.7996 13.0489 16.8253V15.3219C12.4982 15.2985 11.9414 15.4569 11.4731 15.7971L8.74234 17.7812L9.78541 14.5709C10.1201 13.5409 9.75345 12.4124 8.87723 11.7758L6.14644 9.7918H9.52188C10.6049 9.7918 11.5648 9.0944 11.8995 8.06434L12.9426 4.8541L13.0489 5.18143V2.2415Z" />
</svg>
