<svg class="iconigniter" width="24" height="24" viewBox="0 0 24 24" fill="currentColor"  xmlns="http://www.w3.org/2000/svg">
<path fill-rule="evenodd" clip-rule="evenodd" d="M12 4.8541L10.9569 8.06434C10.6222 9.0944 9.66235 9.7918 8.57929 9.7918H5.20384L7.93463 11.7758C8.81085 12.4124 9.1775 13.5409 8.84281 14.5709L7.79974 17.7812L10.5305 15.7971C11.4068 15.1605 12.5932 15.1605 13.4695 15.7971L16.2002 17.7812L15.1572 14.5709C14.8225 13.5409 15.1891 12.4124 16.0654 11.7758L18.7961 9.7918H15.4207C14.3376 9.7918 13.3778 9.0944 13.0431 8.06434L12 4.8541ZM12.9511 2.92705C12.6517 2.00574 11.3483 2.00574 11.0489 2.92705L9.53034 7.60081C9.39647 8.01284 9.01251 8.2918 8.57929 8.2918H3.665C2.69628 8.2918 2.2935 9.53141 3.07722 10.1008L7.05296 12.9894C7.40344 13.244 7.5501 13.6954 7.41623 14.1074L5.89763 18.7812C5.59828 19.7025 6.65276 20.4686 7.43647 19.8992L11.4122 17.0106C11.7627 16.756 12.2373 16.756 12.5878 17.0106L16.5635 19.8992C17.3472 20.4686 18.4017 19.7025 18.1024 18.7812L16.5838 14.1074C16.4499 13.6954 16.5965 13.244 16.947 12.9894L20.9228 10.1008C21.7065 9.53141 21.3037 8.2918 20.335 8.2918H15.4207C14.9875 8.2918 14.6035 8.01284 14.4697 7.60081L12.9511 2.92705Z" />
</svg>
