<svg class="iconigniter" width="24" height="24" viewBox="0 0 24 24" fill="currentColor"  xmlns="http://www.w3.org/2000/svg">
<path fill-rule="evenodd" clip-rule="evenodd" d="M5.1057 17.8336L6.54824 16.3911C6.86294 16.7813 7.21868 17.1371 7.6089 17.4518L6.16636 18.8943L5.1057 17.8336ZM11.25 21V18.9603C11.4964 18.9865 11.7466 19 12 19C12.2534 19 12.5036 18.9865 12.75 18.9603V21H11.25ZM17.8336 18.8943L16.3911 17.4518C16.7813 17.1371 17.1371 16.7813 17.4518 16.3911L18.8943 17.8336L17.8336 18.8943ZM21 12.75H18.9603C18.9865 12.5036 19 12.2534 19 12C19 11.7466 18.9865 11.4964 18.9603 11.25H21V12.75ZM18.8943 6.16637L17.4518 7.6089C17.1371 7.21868 16.7813 6.86294 16.3911 6.54824L17.8336 5.10571L18.8943 6.16637ZM12.75 3V5.03971C12.5036 5.01346 12.2534 5 12 5C11.7466 5 11.4964 5.01346 11.25 5.03971V3H12.75ZM6.16636 5.10571L7.6089 6.54825C7.21868 6.86295 6.86294 7.21869 6.54824 7.60891L5.1057 6.16637L6.16636 5.10571ZM5.03971 12.75H3V11.25H5.03971C5.01346 11.4964 5 11.7466 5 12C5 12.2534 5.01346 12.5036 5.03971 12.75ZM16.5 12C16.5 14.4853 14.4853 16.5 12 16.5C9.51472 16.5 7.5 14.4853 7.5 12C7.5 9.51472 9.51472 7.5 12 7.5C14.4853 7.5 16.5 9.51472 16.5 12ZM18 12C18 15.3137 15.3137 18 12 18C8.68629 18 6 15.3137 6 12C6 8.68629 8.68629 6 12 6C15.3137 6 18 8.68629 18 12Z" />
</svg>
