<svg class="iconigniter" width="24" height="24" viewBox="0 0 24 24" fill="currentColor"  xmlns="http://www.w3.org/2000/svg">
<path fill-rule="evenodd" clip-rule="evenodd" d="M12.75 3.53263C16.7623 3.88341 19.9756 7.02184 20.4418 11H16.9C16.4855 8.95826 14.827 7.3683 12.75 7.05588V3.53263ZM11.25 3.53263C7.23766 3.88341 4.02442 7.02184 3.5582 11H7.10002C7.51447 8.95826 9.17305 7.3683 11.25 7.05588V3.53263ZM3.51446 12.5C3.75882 16.7126 7.07098 20.102 11.25 20.4674L11.25 16.9441C9.00633 16.6066 7.25089 14.7782 7.02469 12.5H3.51446ZM20.4855 12.5C20.2412 16.7126 16.929 20.102 12.75 20.4674L12.75 16.9441C14.9937 16.6066 16.7491 14.7782 16.9753 12.5H20.4855ZM22 12C22 17.5228 17.5228 22 12 22C6.47715 22 2 17.5228 2 12C2 6.47715 6.47715 2 12 2C17.5228 2 22 6.47715 22 12ZM15.5 12C15.5 13.933 13.933 15.5 12 15.5C10.067 15.5 8.5 13.933 8.5 12C8.5 10.067 10.067 8.5 12 8.5C13.933 8.5 15.5 10.067 15.5 12Z" />
</svg>
