<svg class="iconigniter" width="24" height="24" viewBox="0 0 24 24" fill="currentColor"  xmlns="http://www.w3.org/2000/svg">
<path fill-rule="evenodd" clip-rule="evenodd" d="M4.47488 14.4957L13.6319 5.33866C13.7227 5.24787 13.8449 5.19549 13.9733 5.19236L18.322 5.08629C18.6076 5.07933 18.841 5.31271 18.834 5.59834L18.728 9.94704C18.7248 10.0754 18.6724 10.1976 18.5817 10.2884L9.42462 19.4454C9.22936 19.6407 8.91278 19.6407 8.71752 19.4454L4.47488 15.2028C4.27961 15.0075 4.27961 14.691 4.47488 14.4957ZM3.41422 16.2635C2.63317 15.4824 2.63317 14.2161 3.41422 13.435L12.5712 4.278C12.9344 3.91486 13.4233 3.70533 13.9367 3.69281L18.2854 3.58674C19.4279 3.55887 20.3614 4.49239 20.3336 5.63491L20.2275 9.98362C20.215 10.497 20.0055 10.9859 19.6423 11.3491L10.4853 20.5061C9.70424 21.2871 8.43791 21.2871 7.65686 20.5061L3.41422 16.2635ZM17 8C17 8.55229 16.5523 9 16 9C15.4477 9 15 8.55229 15 8C15 7.44772 15.4477 7 16 7C16.5523 7 17 7.44772 17 8Z" />
</svg>
