<svg class="iconigniter" width="24" height="24" viewBox="0 0 24 24" fill="currentColor"  xmlns="http://www.w3.org/2000/svg">
<path fill-rule="evenodd" clip-rule="evenodd" d="M19 5.5H5C4.72386 5.5 4.5 5.72386 4.5 6V18C4.5 18.2761 4.72386 18.5 5 18.5H19C19.2761 18.5 19.5 18.2761 19.5 18V6C19.5 5.72386 19.2761 5.5 19 5.5ZM5 4C3.89543 4 3 4.89543 3 6V18C3 19.1046 3.89543 20 5 20H19C20.1046 20 21 19.1046 21 18V6C21 4.89543 20.1046 4 19 4H5ZM17 15.25H12.5V13.75H17V15.25ZM7.46967 9.53033L9.93934 12L7.46967 14.4697L8.53033 15.5303L11.5303 12.5303L12.0607 12L11.5303 11.4697L8.53033 8.46967L7.46967 9.53033Z" />
</svg>
