<svg class="iconigniter" width="24" height="24" viewBox="0 0 24 24" fill="currentColor"  xmlns="http://www.w3.org/2000/svg">
<path fill-rule="evenodd" clip-rule="evenodd" d="M10 5.5H14C17.5899 5.5 20.5 8.41015 20.5 12C20.5 15.5899 17.5899 18.5 14 18.5H10C6.41015 18.5 3.5 15.5899 3.5 12C3.5 8.41015 6.41015 5.5 10 5.5ZM2 12C2 7.58172 5.58172 4 10 4H14C18.4183 4 22 7.58172 22 12C22 16.4183 18.4183 20 14 20H10C5.58172 20 2 16.4183 2 12ZM13.5 12C13.5 13.933 11.933 15.5 10 15.5C8.067 15.5 6.5 13.933 6.5 12C6.5 10.067 8.067 8.5 10 8.5C11.933 8.5 13.5 10.067 13.5 12ZM15 12C15 14.7614 12.7614 17 10 17C7.23858 17 5 14.7614 5 12C5 9.23858 7.23858 7 10 7C12.7614 7 15 9.23858 15 12Z" />
</svg>
