<svg class="iconigniter" width="24" height="24" viewBox="0 0 24 24" fill="currentcolor" xmlns="http://www.w3.org/2000/svg">
<path fill-rule="evenodd" clip-rule="evenodd" d="M19 6.5H5C4.72386 6.5 4.5 6.72386 4.5 7V9.01365C4.33448 9.00459 4.16778 9 4 9C3.66199 9 3.32833 9.01863 3 9.05493V7C3 5.89543 3.89543 5 5 5H19C20.1046 5 21 5.89543 21 7V17C21 18.1046 20.1046 19 19 19H12.9451C12.9814 18.6717 13 18.338 13 18C13 17.8322 12.9954 17.6655 12.9863 17.5H19C19.2761 17.5 19.5 17.2761 19.5 17V7C19.5 6.72386 19.2761 6.5 19 6.5ZM12 18C12 18.3387 11.979 18.6724 11.9381 19H10.4236C10.4739 18.674 10.5 18.3401 10.5 18C10.5 14.4101 7.58985 11.5 4 11.5C3.65994 11.5 3.32597 11.5261 3 11.5764V10.0619C3.32759 10.021 3.66134 10 4 10C8.41828 10 12 13.5817 12 18ZM9 18C9 18.3425 8.96557 18.6769 8.89998 19H7.35506C7.44936 18.6831 7.5 18.3475 7.5 18C7.5 16.067 5.933 14.5 4 14.5C3.65251 14.5 3.31685 14.5506 3 14.6449V13.1C3.32311 13.0344 3.65753 13 4 13C6.76142 13 9 15.2386 9 18ZM6 18C6 18.3643 5.90261 18.7058 5.73244 19H3V16.2676C3.29417 16.0974 3.63571 16 4 16C5.10457 16 6 16.8954 6 18Z" />
</svg>
