<svg class="iconigniter" width="24" height="24" viewBox="0 0 24 24" fill="currentColor"  xmlns="http://www.w3.org/2000/svg">
<path fill-rule="evenodd" clip-rule="evenodd" d="M10.75 4.5C10.0596 4.5 9.5 5.05964 9.5 5.75V6H14V5.75C14 5.05964 13.4404 4.5 12.75 4.5H10.75ZM15.5 6H18.5H20H22V7.5H20V19C20 20.1046 19.1046 21 18 21H6C4.89543 21 4 20.1046 4 19V7.5H2V6H4H5.5H8V5.75C8 4.23122 9.23122 3 10.75 3H12.75C14.2688 3 15.5 4.23122 15.5 5.75V6ZM5.5 7.5H18.5V19C18.5 19.2761 18.2761 19.5 18 19.5H6C5.72386 19.5 5.5 19.2761 5.5 19V7.5ZM9.25 17V10H10.75V17H9.25ZM13.25 10V17H14.75V10H13.25Z" />
</svg>
