<svg class="iconigniter" width="24" height="24" viewBox="0 0 24 24" fill="currentColor"  xmlns="http://www.w3.org/2000/svg">
<path fill-rule="evenodd" clip-rule="evenodd" d="M4.21334 13.3334L5.59326 13.0971L5.69182 13.0802L5.69225 13.0827C5.94687 14.5661 6.71614 15.9123 7.86492 16.8848C9.01435 17.8578 10.4701 18.3943 11.976 18.4C13.482 18.4056 14.9417 17.88 16.0984 16.9156C17.2551 15.9512 18.0346 14.6098 18.2999 13.1274C18.5652 11.645 18.2992 10.1165 17.5488 8.81082C16.7984 7.50515 15.6115 6.50593 14.1971 5.98894C12.7826 5.47195 11.2312 5.47031 9.81563 5.98431C8.60603 6.42353 7.56188 7.21523 6.81371 8.25H10V9.75H5H4.25V9V4H5.75V7.00623C5.81371 6.92649 5.87889 6.84804 5.9455 6.77093C6.83409 5.74208 7.97614 4.95004 9.26953 4.48039C11.039 3.83789 12.9783 3.83994 14.7463 4.48617C16.5144 5.13241 17.9979 6.38143 18.936 8.01353C19.874 9.64562 20.2065 11.5562 19.8749 13.4093C19.5433 15.2623 18.5688 16.939 17.123 18.1445C15.6771 19.35 13.8525 20.007 11.9701 19.9999C10.0876 19.9929 8.26793 19.3222 6.83115 18.106C5.78091 17.2169 4.98442 16.078 4.50778 14.8048C4.33236 14.3362 4.20026 13.8494 4.11478 13.3503L4.21334 13.3334Z" />
</svg>
