<svg class="iconigniter" width="24" height="24" viewBox="0 0 24 24" fill="currentColor"  xmlns="http://www.w3.org/2000/svg">
<path fill-rule="evenodd" clip-rule="evenodd" d="M9.53033 8.53033L11.25 6.81066V14H12.75V6.81066L14.4697 8.53033L15.5303 7.46967L12.5303 4.46967L12 3.93934L11.4697 4.46967L8.46967 7.46967L9.53033 8.53033ZM4 16.5H20C20.2761 16.5 20.5 16.7239 20.5 17V18C20.5 18.2761 20.2761 18.5 20 18.5H4C3.72386 18.5 3.5 18.2761 3.5 18V17C3.5 16.7239 3.72386 16.5 4 16.5ZM2 17C2 15.8954 2.89543 15 4 15H20C21.1046 15 22 15.8954 22 17V18C22 19.1046 21.1046 20 20 20H4C2.89543 20 2 19.1046 2 18V17Z" />
</svg>
