<svg class="iconigniter" width="24" height="24" viewBox="0 0 24 24" fill="currentColor"  xmlns="http://www.w3.org/2000/svg">
<path fill-rule="evenodd" clip-rule="evenodd" d="M15.4999 8C15.4999 9.933 13.9329 11.5 11.9999 11.5C10.0669 11.5 8.49988 9.933 8.49988 8C8.49988 6.067 10.0669 4.5 11.9999 4.5C13.9329 4.5 15.4999 6.067 15.4999 8ZM14.4217 12.3754C15.9592 11.5225 16.9999 9.8828 16.9999 8C16.9999 5.23858 14.7613 3 11.9999 3C9.23845 3 6.99988 5.23858 6.99988 8C6.99988 9.8828 8.04055 11.5225 9.57806 12.3754C9.36198 12.444 9.14856 12.5219 8.93841 12.609C7.96781 13.011 7.08589 13.6003 6.34302 14.3431C5.60015 15.086 5.01088 15.9679 4.60884 16.9385C4.39989 17.443 4.24365 17.9662 4.14176 18.5C4.04761 18.9932 3.99988 19.4954 3.99988 20H19.9999C19.9999 19.4954 19.9521 18.9932 19.858 18.5C19.7561 17.9662 19.5999 17.443 19.3909 16.9385C18.9889 15.9679 18.3996 15.086 17.6567 14.3431C16.9139 13.6003 16.0319 13.011 15.0613 12.609C14.8512 12.5219 14.6378 12.444 14.4217 12.3754ZM5.67532 18.5C5.7551 18.1636 5.86176 17.8334 5.99466 17.5126C6.32132 16.7239 6.8001 16.0074 7.40368 15.4038C8.00726 14.8002 8.72382 14.3214 9.51244 13.9948C10.3011 13.6681 11.1463 13.5 11.9999 13.5C12.8535 13.5 13.6987 13.6681 14.4873 13.9948C15.2759 14.3214 15.9925 14.8002 16.5961 15.4038C17.1997 16.0074 17.6784 16.7239 18.0051 17.5126C18.138 17.8334 18.2447 18.1636 18.3244 18.5H5.67532Z" />
</svg>
