<svg class="iconigniter" width="24" height="24" viewBox="0 0 24 24" fill="currentColor"  xmlns="http://www.w3.org/2000/svg">
<path fill-rule="evenodd" clip-rule="evenodd" d="M13.5 8C13.5 9.933 11.933 11.5 10 11.5C8.067 11.5 6.5 9.933 6.5 8C6.5 6.067 8.067 4.5 10 4.5C11.933 4.5 13.5 6.067 13.5 8ZM12.4218 12.3754C13.9593 11.5225 15 9.8828 15 8C15 5.23858 12.7614 3 10 3C7.23858 3 5 5.23858 5 8C5 9.8828 6.04067 11.5225 7.57819 12.3754C7.3621 12.444 7.14868 12.5219 6.93853 12.609C5.96793 13.011 5.08601 13.6003 4.34315 14.3431C3.60028 15.086 3.011 15.9679 2.60896 16.9385C2.40001 17.443 2.24377 17.9662 2.14188 18.5C2.04773 18.9932 2 19.4954 2 20H3.5L10 20H12V18.5H10H3.67544C3.75522 18.1636 3.86188 17.8334 3.99478 17.5126C4.32144 16.7239 4.80022 16.0074 5.4038 15.4038C6.00739 14.8002 6.72394 14.3214 7.51256 13.9948C8.30117 13.6681 9.14641 13.5 10 13.5C10.7289 13.5 11.4516 13.6226 12.1382 13.8618L13.2915 12.7085C13.2154 12.6741 13.1387 12.641 13.0615 12.609C12.8513 12.5219 12.6379 12.444 12.4218 12.3754ZM20.4853 16.8284L16.2102 21.1035L15.3263 21.2803L15.5031 20.3964L19.7782 16.1213L20.4853 16.8284ZM16.9497 22.4853L15.0077 22.8737L13.4142 23.1924L13.7329 21.5989L14.1213 19.6569L18.7175 15.0607L19.7782 14L20.8388 15.0607L21.5459 15.7678L22.6066 16.8284L21.5459 17.8891L16.9497 22.4853Z" />
</svg>
