<svg class="iconigniter" width="24" height="24" viewBox="0 0 24 24" fill="currentColor"  xmlns="http://www.w3.org/2000/svg">
<path fill-rule="evenodd" clip-rule="evenodd" d="M13.5 8C13.5 9.933 11.933 11.5 10 11.5C8.067 11.5 6.5 9.933 6.5 8C6.5 6.067 8.067 4.5 10 4.5C11.933 4.5 13.5 6.067 13.5 8ZM12.4218 12.3754C13.9593 11.5225 15 9.8828 15 8C15 5.23858 12.7614 3 10 3C7.23858 3 5 5.23858 5 8C5 9.8828 6.04067 11.5225 7.57819 12.3754C7.3621 12.444 7.14868 12.5219 6.93853 12.609C5.96793 13.011 5.08601 13.6003 4.34315 14.3431C3.60028 15.086 3.011 15.9679 2.60896 16.9385C2.40001 17.443 2.24377 17.9662 2.14188 18.5C2.04773 18.9932 2 19.4954 2 20H3.5L10 20H12V18.5H10H3.67544C3.75522 18.1636 3.86188 17.8334 3.99478 17.5126C4.32144 16.7239 4.80022 16.0074 5.4038 15.4038C6.00739 14.8002 6.72394 14.3214 7.51256 13.9948C8.30117 13.6681 9.14641 13.5 10 13.5C10.7289 13.5 11.4516 13.6226 12.1382 13.8618L13.2915 12.7085C13.2154 12.6741 13.1387 12.641 13.0615 12.609C12.8513 12.5219 12.6379 12.444 12.4218 12.3754ZM16.75 16.0049V17H19.25V16.0049L19.2499 16.0025C19.2497 15.9967 19.2492 15.9847 19.248 15.9675C19.2455 15.9327 19.2402 15.8782 19.229 15.8108C19.2059 15.6724 19.1612 15.4994 19.0792 15.3354C18.9987 15.1744 18.8897 15.0362 18.7402 14.9365C18.5955 14.84 18.3688 14.75 18 14.75C17.6312 14.75 17.4045 14.84 17.2598 14.9365C17.1103 15.0362 17.0013 15.1744 16.9208 15.3354C16.8388 15.4994 16.7941 15.6724 16.771 15.8108C16.7598 15.8782 16.7545 15.9327 16.752 15.9675C16.7508 15.9847 16.7503 15.9967 16.7501 16.0025L16.75 16.0049ZM15.25 16V17H14V18.5V20.5V22H15.5H20.5H22V20.5V18.5V17H20.75V16H20C20.75 16 20.75 15.9996 20.75 15.9992L20.75 15.9984L20.75 15.9967L20.75 15.9926L20.7498 15.9822L20.7491 15.9526C20.7483 15.9291 20.7469 15.8981 20.7442 15.8606C20.7389 15.786 20.7286 15.6843 20.7085 15.5642C20.6691 15.3276 20.5888 15.0006 20.4208 14.6646C20.2513 14.3256 19.9853 13.9638 19.5723 13.6885C19.1545 13.41 18.6312 13.25 18 13.25C17.3688 13.25 16.8455 13.41 16.4277 13.6885C16.0147 13.9638 15.7487 14.3256 15.5792 14.6646C15.4112 15.0006 15.3309 15.3276 15.2915 15.5642C15.2714 15.6843 15.2611 15.786 15.2558 15.8606C15.2531 15.8981 15.2517 15.9291 15.2509 15.9526L15.2502 15.9822L15.25 15.9926L15.25 15.9967L15.25 15.9984L15.25 15.9992C15.25 15.9996 15.25 16 16 16H15.25ZM15.5 18.5V20.5H20.5V18.5H15.5Z" />
</svg>
