<svg class="iconigniter" width="24" height="24" viewBox="0 0 24 24" fill="currentColor"  xmlns="http://www.w3.org/2000/svg">
<path fill-rule="evenodd" clip-rule="evenodd" d="M8 19C9.30622 19 10.4175 18.1652 10.8293 17H14.1707C14.5825 18.1652 15.6938 19 17 19C18.3838 19 19.5488 18.0631 19.8952 16.789C20.5503 16.4605 21 15.7828 21 15V12C21 10.8954 20.1046 10 19 10C18.3705 10 17.7777 9.70361 17.4 9.2L16.8187 8.4249C16.6098 8.14646 16.4773 7.81834 16.4341 7.47297L16.219 5.75193C16.0939 4.75107 15.2431 4 14.2344 4H11.5H6C4.89543 4 4 4.89543 4 6V15C4 15.7828 4.44969 16.4605 5.10483 16.789C5.45122 18.0631 6.61619 19 8 19ZM19.5 14.3411V12C19.5 11.7239 19.2761 11.5 19 11.5C17.8983 11.5 16.861 10.9813 16.2 10.1L15.6187 9.3249L16.8187 8.4249L15.6187 9.3249C15.2532 8.83763 15.0213 8.26342 14.9457 7.65902L14.7306 5.93798C14.6993 5.68777 14.4866 5.5 14.2344 5.5H11.5H6C5.72386 5.5 5.5 5.72386 5.5 6V14.3411C6.03746 13.5328 6.95651 13 8 13C9.4865 13 10.7205 14.0811 10.9585 15.5H14.0415C14.2795 14.0811 15.5135 13 17 13C18.0435 13 18.9625 13.5328 19.5 14.3411ZM8 17.5C8.82843 17.5 9.5 16.8284 9.5 16C9.5 15.1716 8.82843 14.5 8 14.5C7.17157 14.5 6.5 15.1716 6.5 16C6.5 16.8284 7.17157 17.5 8 17.5ZM18.5 16C18.5 16.8284 17.8284 17.5 17 17.5C16.1716 17.5 15.5 16.8284 15.5 16C15.5 15.1716 16.1716 14.5 17 14.5C17.8284 14.5 18.5 15.1716 18.5 16Z" />
</svg>
