<svg width="24" height="24" viewBox="0 0 24 24" fill="none" xmlns="http://www.w3.org/2000/svg">
<path fill-rule="evenodd" clip-rule="evenodd" d="M14 4.5H10C9.72386 4.5 9.5 4.72386 9.5 5V6H14.5V5C14.5 4.72386 14.2761 4.5 14 4.5ZM16 6V5C16 3.89543 15.1046 3 14 3H10C8.89543 3 8 3.89543 8 5V6H7C5.89543 6 5 6.89543 5 8V16C5 17.1046 5.89543 18 7 18H8V19C8 20.1046 8.89543 21 10 21H14C15.1046 21 16 20.1046 16 19V18H17C18.1046 18 19 17.1046 19 16V8C19 6.89543 18.1046 6 17 6H16ZM14.5 18H9.5V19C9.5 19.2761 9.72386 19.5 10 19.5H14C14.2761 19.5 14.5 19.2761 14.5 19V18ZM7 7.5H17C17.2761 7.5 17.5 7.72386 17.5 8V16C17.5 16.2761 17.2761 16.5 17 16.5H7C6.72386 16.5 6.5 16.2761 6.5 16V8C6.5 7.72386 6.72386 7.5 7 7.5Z" fill="black"/>
</svg>
