<svg class="iconigniter" width="24" height="24" viewBox="0 0 24 24" fill="currentColor"  xmlns="http://www.w3.org/2000/svg">
<path fill-rule="evenodd" clip-rule="evenodd" d="M12 18.5C15.5899 18.5 18.5 15.5899 18.5 12C18.5 8.41015 15.5899 5.5 12 5.5C8.41015 5.5 5.5 8.41015 5.5 12C5.5 15.5899 8.41015 18.5 12 18.5ZM18.1624 17.1018C19.3101 15.717 20 13.9391 20 12C20 7.58172 16.4183 4 12 4C7.58172 4 4 7.58172 4 12C4 16.4183 7.58172 20 12 20C13.9391 20 15.717 19.3101 17.1018 18.1624L20.4697 21.5303L21.5303 20.4697L18.1624 17.1018ZM8 12.75V11.25L16 11.25V12.75H8Z" />
</svg>
